<?xml version="1.0" encoding="utf-8"?>
<!-- Generator: Adobe Illustrator 17.0.0, SVG Export Plug-In . SVG Version: 6.00 Build 0)  -->
<!DOCTYPE svg PUBLIC "-//W3C//DTD SVG 1.1//EN" "http://www.w3.org/Graphics/SVG/1.1/DTD/svg11.dtd">
<svg version="1.1" id="Layer_1" xmlns="http://www.w3.org/2000/svg" xmlns:xlink="http://www.w3.org/1999/xlink" x="0px" y="0px"
	 width="1400px" height="1400px" viewBox="0 0 1400 1400" enable-background="new 0 0 1400 1400" xml:space="preserve">
<rect fill-rule="evenodd" clip-rule="evenodd" fill="#A14ABF" width="1400" height="1400"/>
<g>
	<polygon fill-rule="evenodd" clip-rule="evenodd" fill="#00CCFF" points="864.5,1173.9 862.6,1177 889.8,1194.9 	"/>
	<polygon fill-rule="evenodd" clip-rule="evenodd" fill="#00CCFF" points="897.8,1151 896.6,1160 900.9,1155.1 	"/>
	<polygon fill-rule="evenodd" clip-rule="evenodd" fill="#FFFFFF" points="1027.5,1159.4 1018.2,1153.8 1022.5,1152.6 	"/>
	<polygon fill-rule="evenodd" clip-rule="evenodd" fill="#FFFFFF" points="1160.8,1294.6 1050.3,1210.6 1068.2,1221.1 	"/>
	<polygon fill-rule="evenodd" clip-rule="evenodd" fill="#00CCFF" points="976.8,1091.5 971.3,1100.7 983,1109.4 986.7,1101.3 	"/>
	<polygon fill-rule="evenodd" clip-rule="evenodd" fill="#FFFFFF" points="1001.8,1091.2 1007.7,1082.2 1008.3,1085 	"/>
	<polygon fill-rule="evenodd" clip-rule="evenodd" fill="#00CCFF" points="723.7,1116.5 721.2,1120.8 727.4,1122.7 	"/>
	<polygon fill-rule="evenodd" clip-rule="evenodd" fill="#FFFFFF" points="1089.7,1114.2 1012.7,1060.5 1038.9,1072.5 	"/>
</g>
<g>
	<g>
		<polygon fill-rule="evenodd" clip-rule="evenodd" fill="#1A1A1A" points="714.3,147.6 665.5,185.9 650.1,215.5 606.8,241.5 
			748.8,255.7 755,213 786.5,234 793.9,210 777.8,180.9 		"/>
		<polygon fill-rule="evenodd" clip-rule="evenodd" fill="#996633" points="782.6,231.5 773.8,268.3 763,273.6 762.1,300.7 
			740.8,293.3 691.4,336.8 670.1,312.2 646.3,318.3 655.6,262.7 638,229.4 658.7,211.8 675.4,170.2 723.5,177.2 		"/>
		<polygon opacity="0.5" fill-rule="evenodd" clip-rule="evenodd" fill="#3F2016" points="749.1,286.5 744.8,302.9 725.4,309.7 
			725.7,324.2 714.6,326.7 708.1,339 691.4,336.8 670.1,312.2 661.2,281 745.1,284.7 758.7,251.7 785.3,277 755.3,278.5 		"/>
		<polygon opacity="0.5" fill-rule="evenodd" clip-rule="evenodd" fill="#3F2016" points="683.4,315.8 714.9,245.5 701,232.8 
			657.8,246.6 639.9,216.2 663,217.7 663.6,178.2 709.9,161.2 747.6,213 740.5,246.4 721.1,248.3 705.3,335 676.6,331.9 674.5,289 
					"/>
	</g>
	<g>
		<polygon fill-rule="evenodd" clip-rule="evenodd" fill="#996633" points="467.4,213.3 440.5,191.1 461.8,214.9 451.9,207.8 
			395.1,205.3 375.3,197 379,199.8 372.9,198.2 301.9,224.8 278.4,222 246,227.6 242.3,255 248.8,256.9 254.3,247 282.7,256 
			291.4,235.6 350.6,239.6 375,224.5 457.2,244 453.4,233.5 		"/>
		<path opacity="0.5" fill-rule="evenodd" clip-rule="evenodd" fill="#3F2016" d="M335.2,244.2l27.2-16.3l17.3,3.7l15.8-7.4
			l59.9,14.6l7.4,20.8l-12.3,9.1l-26.8-11.4l6.8,6.2l-50.6-15.4c-1.6,0,1.8,0-1.5,0l-24.7,4l-41.7-3.1l-3.4,15.4l-13.9,4.3
			l-22.5-5.6l-9.9,4.3l-4.6-3.4l11.1-12.5l-29.3-40.3l33.7,38.9l44.8-19.8l-11.1-14.5L335.2,244.2z"/>
		<polygon fill-rule="evenodd" clip-rule="evenodd" fill="#FFFFCC" points="421.3,213.4 387.4,208.4 373.8,203.5 295.7,227.9 
			252.5,201.6 298,224.4 321.6,214 301.6,195.8 324.4,211.2 361.1,196.7 341.7,185 388.9,206.6 		"/>
		<polygon opacity="0.5" fill-rule="evenodd" clip-rule="evenodd" fill="#3F2016" points="242.3,255 246,227.6 305,254.3 321.3,254 
			311.4,262.6 335.8,281.9 290.9,265.1 288.7,256.1 248.9,250.1 		"/>
	</g>
	<g>
		<polygon opacity="0.5" fill-rule="evenodd" clip-rule="evenodd" fill="#3F2016" points="606.5,384.7 610.9,396.4 613.9,413.1 
			628.1,426.7 640,430.2 691.6,450.9 809.5,453.1 830.8,464.8 850.5,454.9 875.2,461.1 892.8,441 901.2,418.8 870,401.5 
			844.7,441.6 806.1,445.7 705.5,421.3 648.7,425 624.9,408.6 636,383.9 659.5,377.1 630,352 		"/>
		<polygon fill-rule="evenodd" clip-rule="evenodd" fill="#996633" points="630,352 649.3,374.7 641.9,377.8 656.4,389.8 
			628.9,377.4 621.5,393.8 665.3,429.3 710.4,427.5 672.1,412 759.2,440.4 780.2,434.8 755.8,425.9 816.9,442.3 847.6,437 859,419 
			907.3,435.5 853.9,413.6 862,414.1 870,401.5 845,387.9 863.8,400 858.5,402.1 849,397.2 856.7,402.7 828.3,418.8 811.3,418.2 
			722.8,395.6 674,373.4 674,363.7 667.7,360 		"/>
		<polygon fill-rule="evenodd" clip-rule="evenodd" fill="#FFFFCC" points="700.2,385.4 726.8,401.5 816.9,425 873.7,449 
			822.7,425.3 834.8,420.9 851.2,405.9 828.3,418.8 757.9,392.2 817.5,418.4 811.3,418.2 722.8,395.6 		"/>
	</g>
	<g>
		<polygon fill-rule="evenodd" clip-rule="evenodd" fill="#FFFFFF" points="669.8,294.5 651.6,266.1 646.5,245.4 629.1,221.4 
			612.1,223.9 589.9,215.8 534,216.2 476.3,200.4 453.4,233.5 467,272 434.3,245.5 462.1,275.1 460.8,287.8 474.7,303.2 
			462.4,293.3 460.2,312.2 443.9,329.4 388,287.5 461.4,351.4 421.3,332.6 454.1,366.2 438.6,356.9 417.6,414.3 407.7,424.2 
			414.5,437.8 384.3,501.4 397.9,524.8 351.6,488.4 394.8,530.4 380,522.4 387.4,531.6 384.9,547 402.2,554.5 402.8,539.6 
			503.4,492.1 599.1,501.4 536.8,450.7 630,518.7 587.4,476.1 607.1,489 610.2,462.5 636.2,463.1 628.1,426.7 613.9,413.1 
			610.9,396.4 606.5,384.7 630,352 667.7,360 709.6,384.7 647.9,335.3 675.7,353.2 670.1,312.2 		"/>
		<polygon opacity="0.5" fill-rule="evenodd" clip-rule="evenodd" fill="#FF6666" points="630.9,503.8 583.1,452.9 597.6,473 
			578.1,456 540.2,483.5 570.4,492.1 500.7,484.7 414.5,516.5 497.3,481 508.4,460.3 472.3,471.4 517.6,452.3 527.8,453.8 
			537.7,443 501.9,433.5 417.6,456.3 501.6,425.7 563,445.2 506.8,414.9 469.2,423.6 527.2,404.1 545.4,411.3 529.4,389.3 
			475.1,389.6 434.3,409.1 497.3,373.9 594.2,379.7 638,447.3 619.8,444.9 614.9,473.6 		"/>
		<polygon opacity="0.5" fill-rule="evenodd" clip-rule="evenodd" fill="#FF6666" points="592.3,439.3 519.5,346.7 553.5,351 
			539.9,319.6 564.5,365.9 583.7,368.9 575,343 591.7,266.5 588.6,348.6 602.2,377 611.5,435.6 		"/>
		<polygon opacity="0.5" fill-rule="evenodd" clip-rule="evenodd" fill="#FF6666" points="562.1,211.5 497.9,224.2 478.1,237.4 
			600.7,228.2 		"/>
		<polygon fill-rule="evenodd" clip-rule="evenodd" fill="#FFFFFF" points="532.8,207.8 598.2,190.9 599.8,183.1 		"/>
		<polygon fill-rule="evenodd" clip-rule="evenodd" fill="#FFFFFF" points="379.2,583.3 296.5,542 366.2,564.2 		"/>
		<polygon opacity="0.5" fill-rule="evenodd" clip-rule="evenodd" fill="#FF6666" points="608.4,345.5 634.3,377.3 632.8,361.2 		
			"/>
	</g>
	<g>
		<polygon fill-rule="evenodd" clip-rule="evenodd" fill="#4D4D4D" points="508.5,806.8 526.4,826.6 547.1,857.4 550.2,875.4 
			569.3,888.9 592.8,937.7 627.4,956.8 584.1,941.4 633.5,963 613.8,958.1 667.5,1011.1 718.7,1042.7 726.7,1063.6 731.1,1039.6 
			753.9,1026 703.9,995.7 773,1020.4 726.1,998.2 665.6,906.2 618.1,882.1 715.6,917.9 655.1,890.8 641,870.4 629.8,862.4 
			628.6,832.7 615,819.8 603.6,785.2 540.6,767.9 		"/>
		<polygon opacity="0.5" fill-rule="evenodd" clip-rule="evenodd" fill="#070707" points="546,769.4 582.3,807.4 562.5,806.8 
			656.4,865.4 622.4,837.1 622.4,813 592.7,782.2 		"/>
		<polygon opacity="0.5" fill-rule="evenodd" clip-rule="evenodd" fill="#070707" points="670.6,885.8 584.1,828.4 595.9,842 
			570.6,843.2 532.9,862.4 580.4,885.2 593.4,880.3 640.8,915.8 618.1,906.8 581.7,934 620.6,974.7 645.3,940.2 702.7,977.8 
			663.8,963 742.2,998.2 625.5,869.2 		"/>
	</g>
	<g>
		<polygon fill-rule="evenodd" clip-rule="evenodd" fill="#FFFFFF" points="773,1020.4 670.6,993.9 686,1008.1 		"/>
		<polygon fill-rule="evenodd" clip-rule="evenodd" fill="#FFFFFF" points="718.7,1027.2 637.8,1017.3 666.9,1031.5 		"/>
		<polygon fill-rule="evenodd" clip-rule="evenodd" fill="#00CCFF" points="726.7,1063.6 738.5,1088.3 776.2,1105 799.6,1134.6 
			863.8,1146.4 878.6,1139.6 852.1,1087.7 805.2,1068 778,1037.1 753.9,1026 731.1,1039.6 		"/>
		<polygon fill-rule="evenodd" clip-rule="evenodd" fill="#336699" points="766.3,1109.3 749.3,1060.2 756.7,1051.6 812.2,1064.6 
			866,1107.5 876.5,1144.8 828.9,1142.6 		"/>
		<polygon fill-rule="evenodd" clip-rule="evenodd" fill="#FF6666" points="782,1089.9 765.9,1085.2 778,1095.7 785.7,1097.3 
			788.8,1094.2 		"/>
		<polygon fill-rule="evenodd" clip-rule="evenodd" fill="#FF6666" points="806.4,1090.5 787.6,1071.3 804.5,1076 		"/>
		<polygon fill-rule="evenodd" clip-rule="evenodd" fill="#FF6666" points="817.8,1121.6 810.4,1125 819.3,1132.8 826.1,1134 		"/>
		<polygon fill-rule="evenodd" clip-rule="evenodd" fill="#FF6666" points="844.7,1122.9 841,1128.8 844.7,1129.7 849,1127.2 		"/>
		<polygon fill-rule="evenodd" clip-rule="evenodd" fill="#FF6666" points="844.1,1104.4 844.1,1115.5 849,1104.4 		"/>
		<polygon fill-rule="evenodd" clip-rule="evenodd" fill="#FF6666" points="863.2,1132.5 858.5,1138.3 865.7,1134.9 		"/>
	</g>
	<g>
		<polygon fill-rule="evenodd" clip-rule="evenodd" fill="#4D4D4D" points="628.3,740.1 671.8,757.1 694.6,776.9 680.4,776.9 
			716.9,784.9 699,786.1 747.7,811.4 795.9,881.8 884.8,945.4 863.2,939.2 887.3,965.2 898.4,985.5 946.5,962.1 931.1,947.9 
			889.1,921.9 950.8,951.6 916.3,927.5 843.4,807.7 870.6,818.2 802.1,786.7 834.8,798.5 807,767 784.2,757.1 741.9,700 
			736.3,690.8 710.4,681.5 622.7,718.5 		"/>
		<polygon opacity="0.5" fill-rule="evenodd" clip-rule="evenodd" fill="#070707" points="673,697.3 734.2,739.2 700.8,734.9 
			770.6,756.5 757.6,743.5 818.1,754.6 756.4,734.9 725.5,697.8 741.9,700 736.3,690.8 710.4,681.5 		"/>
		<polygon opacity="0.5" fill-rule="evenodd" clip-rule="evenodd" fill="#070707" points="728,759 711.9,773.8 648.3,768.2 
			709.5,798.5 735.4,797.2 749.6,773.8 792.2,775.6 845.9,794.2 786,767 		"/>
		<polygon opacity="0.5" fill-rule="evenodd" clip-rule="evenodd" fill="#070707" points="817.5,810.8 792.8,831.2 753.3,843.5 
			819.3,874.4 797.1,870.1 843.4,888.6 825.5,875 844.1,858.3 883.6,889.2 902.7,917.6 853.3,834.3 888.5,849.1 827.4,806.5 		"/>
	</g>
	<g>
		<polygon fill-rule="evenodd" clip-rule="evenodd" fill="#00CCFF" points="898.4,985.5 910.7,997.6 916.6,1031.5 930.8,1044.8 
			975.2,1034.3 1011,1045.1 1047.8,1011.8 1037.3,1002.2 968.1,981.2 946.5,962.1 		"/>
		<polygon fill-rule="evenodd" clip-rule="evenodd" fill="#FFFFFF" points="903.9,971.6 857,960.5 898.7,975.3 		"/>
		<polygon fill-rule="evenodd" clip-rule="evenodd" fill="#336699" points="912,1039.5 958.3,1008.1 1049,1004 1028.3,1035.9 
			966.6,1040.8 		"/>
		<polygon fill-rule="evenodd" clip-rule="evenodd" fill="#FF6666" points="966.9,1027.2 953.6,1024.1 980.5,1022.4 		"/>
		<polygon fill-rule="evenodd" clip-rule="evenodd" fill="#FF6666" points="1011,1019.2 996.8,1025.7 1017.5,1020.1 		"/>
		<polygon fill-rule="evenodd" clip-rule="evenodd" fill="#FF6666" points="1003.6,1030 995.3,1034.3 1008.6,1031.8 		"/>
		<polygon fill-rule="evenodd" clip-rule="evenodd" fill="#FF6666" points="1032,1019.2 1022.8,1023.5 1031.7,1021.3 		"/>
		<polygon fill-rule="evenodd" clip-rule="evenodd" fill="#FFFFFF" points="979.9,976.3 992.8,998.5 1002.1,999.1 987.3,982.5 
			1015.7,991.1 		"/>
		<polygon fill-rule="evenodd" clip-rule="evenodd" fill="#00CCFF" points="1043.2,977.5 1050,986.5 1054.3,980.7 		"/>
	</g>
	<g>
		<polygon fill-rule="evenodd" clip-rule="evenodd" fill="#FF6666" points="402.2,554.5 394.9,595.7 402.3,647.5 364.1,624.7 
			446.2,693.8 411,671.6 427.6,715.4 467.8,767.9 465.9,787 482.6,795.7 478.9,827.2 526.4,826.6 508.5,806.8 540.6,767.9 
			603.6,785.2 605.4,769.8 598,753.7 591.8,727.8 602.3,738.3 628.3,740.1 622.7,718.5 710.4,681.5 736.3,690.8 741.9,700 
			788.8,706.8 749.9,696.3 811.6,704.9 676.4,665.4 731.4,675.9 723.3,671.6 712.3,643.2 690,632.1 643.7,560.5 641.9,545.1 
			684.5,562.9 605.4,519.1 625.2,527.1 599.1,501.4 503.4,492.1 402.8,539.6 		"/>
		<polygon opacity="0.5" fill-rule="evenodd" clip-rule="evenodd" fill="#AD2B2B" points="404.3,526.9 447.4,532.5 469.7,517.6 
			503.6,522.5 525.2,508.4 562.9,518.2 595.6,567.6 539.4,547.9 575.3,568.3 503.6,618.9 417.8,609.6 532,643.6 488.2,638 
			469.1,704.1 398.7,686.2 494.4,730.6 502.4,789.9 467.8,824.5 526.4,826.6 611.7,762.1 480.2,714.6 553.6,731.9 548.7,687.4 
			661,726.3 629.6,707.1 680.2,681.2 603,613.3 617.2,537 467.8,482.4 511,508.4 		"/>
		<polygon fill-rule="evenodd" clip-rule="evenodd" fill="#FFFFFF" points="513.8,771.9 439.4,751.6 488.1,775.3 		"/>
		<polygon fill-rule="evenodd" clip-rule="evenodd" fill="#FFFFFF" points="441.8,774.7 374.5,759.6 408.5,771.6 		"/>
		<polygon opacity="0.5" fill-rule="evenodd" clip-rule="evenodd" points="604.5,777.5 478.3,740.7 540.6,755.6 527.7,737.7 
			567.8,751.9 508.5,726.6 533.2,733.4 530.7,722.9 503.6,698.1 553,716.7 456,656.2 509.7,682.7 505.4,665.4 487.5,653.7 
			547.4,650 557.9,643.2 658.5,653.1 564.7,627.2 702.4,655 488.8,592.6 650.5,630.9 623.3,591.4 595.6,580.9 649.9,589.5 619,579 
			599.3,550.6 549.9,523.4 617.2,537 580.8,525.9 566.1,498.2 670.3,540.1 636.9,530.8 680.2,587 638.8,570.4 680.8,630.9 
			774.6,670.4 704.2,648.2 762.3,717.3 595.6,667.9 569,677.2 702.4,714.8 609.1,693.2 640.6,732.7 577,729 		"/>
	</g>
</g>
<g>
	<path fill-rule="evenodd" clip-rule="evenodd" fill="#FFFFFF" d="M981.5,240.4c34.9,0,63.2,28.3,63.2,63.2
		c0,34.9-28.3,63.2-63.2,63.2c-34.9,0-63.2-28.3-63.2-63.2c0-13.9,4.5-26.8,12.1-37.2l31.1,9.2l-27.5-13.7
		C945.7,248.7,962.6,240.4,981.5,240.4L981.5,240.4z"/>
	<polygon fill-rule="evenodd" clip-rule="evenodd" fill="#FFFFFF" points="969.7,279.6 880.2,234.9 947.5,253.1 	"/>
	<polygon fill-rule="evenodd" clip-rule="evenodd" fill="#FFFFFF" points="896.8,290.9 826.2,255.4 873.1,283.2 	"/>
	<polygon fill-rule="evenodd" clip-rule="evenodd" fill="#FFFFFF" points="958,353.7 886.7,308.9 941.6,352.7 	"/>
	<polygon fill-rule="evenodd" clip-rule="evenodd" fill="#FFFFFF" points="988.3,240.8 912.3,230.5 1009.9,255.3 	"/>
	<polygon opacity="0.5" fill-rule="evenodd" clip-rule="evenodd" fill="#B3B3B3" points="973.7,235.5 992.6,248.2 1010,258.2 
		1008.1,272.4 926.8,251.5 1003.7,294.8 1001.8,308.9 982.1,314.5 994.4,328.4 973.7,333.3 901.2,300 992.6,348.8 976.8,345.7 
		954.9,353.5 984.2,362.7 1014.8,355.2 1041,314.8 1066.3,327.2 1018.8,297.2 1040.7,305.9 1032.1,276.9 1010.2,250 	"/>
	<path fill-rule="evenodd" clip-rule="evenodd" fill="#333333" d="M1035.8,302.2l-18.5,21.6v25.9l19.1-14.7L1035.8,302.2z
		 M1017,275.6l-22.9-8.3l0.3-16l20.7,9.2L1017,275.6z M997.8,272.2l-7.7-1.9l1.9,4.9L997.8,272.2z M985.2,326.9l-31.5,4l-7.4-18.8
		l23.2-2.5L985.2,326.9z"/>
</g>
</svg>
