<?xml version="1.0" encoding="utf-8"?>
<!-- Generator: Adobe Illustrator 21.0.0, SVG Export Plug-In . SVG Version: 6.00 Build 0)  -->
<svg version="1.1" xmlns="http://www.w3.org/2000/svg" xmlns:xlink="http://www.w3.org/1999/xlink" x="0px" y="0px"
	 viewBox="0 0 1400 1400" style="enable-background:new 0 0 1400 1400;" xml:space="preserve">
<style type="text/css">
	.st0{fill:#C6BDA3;}
	.st1{fill:#6D6E71;}
	.st2{fill:#D8D8DB;}
	.st3{fill:url(#SVGID_1_);}
	.st4{fill:#F8D286;}
	.st5{fill:url(#SVGID_2_);}
	.st6{fill:url(#SVGID_3_);}
	.st7{fill:url(#SVGID_4_);}
	.st8{fill:#0C0C0C;}
	.st9{fill:#1E1E1E;}
	.st10{fill:#E5E3E4;}
	.st11{fill:#353535;}
	.st12{fill:#0F0F0E;}
	.st13{fill:#AFA29C;}
	.st14{fill:url(#SVGID_5_);}
	.st15{fill:url(#SVGID_6_);}
	.st16{fill:url(#SVGID_7_);}
	.st17{fill:#414042;}
	.st18{fill:url(#SVGID_8_);}
	.st19{fill:url(#SVGID_9_);}
	.st20{fill:#E2DECF;}
	.st21{fill:#F7F2DF;}
	.st22{fill:#EFEFED;}
	.st23{fill:#808285;}
	.st24{fill:#58595B;}
	.st25{fill:#BCBEC0;}
	.st26{fill:url(#SVGID_10_);}
	.st27{fill:url(#SVGID_11_);}
	.st28{fill:#F1F2F2;}
	.st29{fill:#E6E7E8;}
	.st30{fill:#A7A9AC;}
	.st31{fill:#231F20;}
	.st32{fill:#191919;}
</style>
<g id="background">
	<rect class="st4" width="1400" height="1400"/>
	<linearGradient id="SVGID_1_" gradientUnits="userSpaceOnUse" x1="716.1069" y1="772.1848" x2="1142.0217" y2="1354.0685">
		<stop  offset="8.108108e-03" style="stop-color:#EDA946"/>
		<stop  offset="0.9703" style="stop-color:#EDA946;stop-opacity:0"/>
	</linearGradient>
	<polygon class="st3" points="1202.3,249.9 1400,612.2 1400,1400 307.1,1400 203.8,1170.9 	"/>
</g>
<g id="object">
	<g>
		<path class="st23" d="M1164.2,211.8H235.8c-21,0-38.1,17.1-38.1,38.1v900.3c0,21,17.1,38.1,38.1,38.1h928.5
			c21,0,38.1-17.1,38.1-38.1V249.9C1202.3,228.8,1185.3,211.8,1164.2,211.8z"/>
		<path class="st24" d="M1097.2,331l1.8-2.2l12.1-45l-21.9-5.9l-21.9-5.9l-12.1,45l0.5,2.8c-40.2-0.9-77.2,25.6-88.2,66.1
			c-11.8,43.7,11,88.7,51.7,105.7l-6.3,23.5c0.6,1.2,29.2,136.7,40.9,194.6c3.3,16.5-1.9,49-17.3,69.1
			c-20.9,27.4-64.9,57.6-76.2,65.2l-0.5-0.9l-3.2,1.8l0.6,1.1l-16.9,9.7l-1.4-2.5l-45,25.9c-2.3,1.3-3.1,4.3-1.8,6.6l9.6,16.7
			c1.3,2.3,4.3,3.1,6.6,1.8l45-25.9l-1.4-2.5l16.9-9.7l0.6,1.1l3.2-1.8l-0.9-1.6c11.5-7.5,58.9-39.6,83-71.2
			c10.7-14,19.2-33.2,23.3-52.5c5.1-24.2-31-181-40.2-226.2l4.4-16.2c43.7,5.8,86-21.6,97.9-65.3
			C1151.1,392,1132.3,350.5,1097.2,331z"/>
		<circle class="st25" cx="659.3" cy="705.8" r="352.2"/>
		<g>
			<g>
				<linearGradient id="SVGID_2_" gradientUnits="userSpaceOnUse" x1="681.1579" y1="407.1836" x2="644.4542" y2="907.5137">
					<stop  offset="8.108108e-03" style="stop-color:#58595B"/>
					<stop  offset="0.2284" style="stop-color:#515153"/>
					<stop  offset="0.5657" style="stop-color:#3C3D3E"/>
					<stop  offset="0.9762" style="stop-color:#1B1B1B"/>
					<stop  offset="1" style="stop-color:#191919"/>
				</linearGradient>
				<circle class="st5" cx="659.3" cy="705.8" r="340"/>
				<radialGradient id="SVGID_3_" cx="659.2523" cy="705.7915" r="332.2656" gradientUnits="userSpaceOnUse">
					<stop  offset="8.108108e-03" style="stop-color:#231F20"/>
					<stop  offset="0.4985" style="stop-color:#191717"/>
					<stop  offset="0.9243" style="stop-color:#0C0C0C"/>
				</radialGradient>
				<circle class="st6" cx="659.3" cy="705.8" r="332.3"/>
				<path class="st8" d="M365.1,860.4c4.5,8.5,9.3,16.7,14.4,24.7l279.7-180.5l307.9,126.1c8.6-21.1,15-43.3,19.1-66.3l-327-71.4
					L365.1,860.4z"/>
				<path class="st8" d="M642.5,709.7l-128,295.2c22.3,10.8,45.9,19.1,70.6,24.7l74.1-305.8l50.6-346.5c-16.5-2.5-33.4-3.8-50.6-3.8
					c-18.8,0-37.2,1.6-55.1,4.6L642.5,709.7z"/>
				<circle class="st8" cx="659.3" cy="705.9" r="117.4"/>
				<circle class="st9" cx="659.3" cy="705.9" r="115.8"/>
				<circle class="st10" cx="659.3" cy="705.9" r="93.7"/>
				<path class="st9" d="M495.6,948.9c-20.7-13.7-39.6-30.1-56.3-48.5c-16.5-18.6-30.7-39.2-42.1-61.4
					c-22.8-44.2-33.9-94.4-32.1-144.2c1.9-49.8,16.7-99,42.8-141.5c13-21.2,28.7-40.8,46.5-58.1c18-17.2,38.1-32.1,59.8-44.2
					c-21.4,12.5-41.2,27.7-58.8,45.2c-17.7,17.3-33.1,36.9-45.9,58.1c-25.6,42.3-40,91.2-41.5,140.6c-2.1,49.3,8.6,99.2,30.9,143.3
					c11.1,22.1,25.1,42.7,41.4,61.3C456.6,918.1,475.2,934.8,495.6,948.9z"/>
				<path class="st9" d="M805.4,451.7c22.7,12.8,43.7,28.7,62.3,47.1c18.5,18.5,34.5,39.5,47.4,62.2c26,45.4,39.4,97.9,38.5,150.3
					c-0.9,52.4-16.3,104.4-44.1,148.8c-13.8,22.2-30.6,42.6-49.8,60.3c-19.3,17.7-40.9,32.7-64,44.7c23-12.4,44.2-27.8,63.1-45.7
					c18.9-17.8,35.5-38.1,49.1-60.3c27.3-44.3,42.2-96,42.8-147.9c1.2-51.9-11.7-104.1-37.2-149.3c-12.7-22.7-28.5-43.6-46.7-62.1
					C848.5,481.2,827.9,465,805.4,451.7z"/>
				<path class="st9" d="M522.3,957.2c-22.7-12.2-43.8-27.6-62.4-45.5c-18.6-17.9-34.8-38.4-47.9-60.7
					c-26.4-44.5-40.2-96.3-39.8-148.1c0.3-51.8,15.3-103.3,42.6-147.3c13.6-22,30.2-42.1,49.1-59.7c19-17.5,40.4-32.4,63.3-44.2
					c-45.6,24.1-84.5,60.7-111.4,104.6c-27,43.9-41.6,95.2-41.8,146.6c-0.7,51.4,12.8,103,38.9,147.4
					C439,894.8,477.1,932.1,522.3,957.2z"/>
				<path class="st9" d="M800.3,456.7c22.6,12.7,43.5,28.5,61.9,46.8c18.4,18.3,34.2,39.2,47,61.8c25.7,45.2,38.5,97.5,36.9,149.5
					c-1.5,52-17.6,103.4-46.1,146.9c-14.2,21.8-31.3,41.6-50.8,58.8c-19.5,17.1-41.4,31.5-64.7,42.8C831,940.2,870.9,904.4,899,861
					c28.1-43.4,43.9-94.6,45.2-146.3c1.8-51.6-10.7-103.7-36.1-148.8C882.8,520.8,845.2,482.6,800.3,456.7z"/>
				<path class="st9" d="M556,947.4c-22.9-9.6-44.4-22.4-63.7-38c-19.3-15.7-36.3-34.1-50.4-54.6c-28.4-40.9-44.6-90-46.4-139.8
					c-1.7-49.8,11.1-99.9,36.5-142.7c12.7-21.4,28.4-41,46.5-58c18.2-16.9,38.8-31.2,60.9-42.4c-21.9,11.6-42.2,26.2-59.9,43.4
					c-17.9,17.1-33.4,36.6-45.8,57.9c-25,42.6-37.3,92.4-35.3,141.6c1.4,49.3,17.2,98.1,45.1,138.8c13.9,20.4,30.7,38.8,49.7,54.6
					C512.1,924.2,533.3,937.4,556,947.4z"/>
				<path class="st9" d="M781.5,473.2c21.7,11.2,41.9,25.5,59.8,42.3c17.8,16.9,33.2,36.3,45.6,57.4c25,42.3,37.7,91.7,36.2,140.9
					c-1.5,49.2-17.1,97.8-44.7,138.4c-13.7,20.4-30.3,38.8-49.1,54.6c-18.9,15.7-39.9,28.7-62.3,38.6c22.2-10.3,42.9-23.7,61.4-39.6
					c18.5-15.8,34.9-34.3,48.4-54.6c27.1-40.6,42.2-88.8,43.4-137.5c1.8-48.6-10.4-97.7-35-139.8c-12.2-21.1-27.4-40.4-44.9-57.4
					C822.9,499.5,803,484.8,781.5,473.2z"/>
				<path class="st9" d="M574.8,945.4c-23.7-8.1-46.2-19.7-66.6-34.3c-20.3-14.8-38.5-32.6-53.6-52.6c-30.5-40.1-48.2-89.6-50.7-140
					c-2.6-50.3,10.2-101.4,36.6-144.3c13.1-21.5,29.4-41,48.2-57.6c18.8-16.6,40.1-30.4,62.8-40.8c-22.5,11-43.3,25.3-61.6,42.2
					c-18.4,16.9-34.2,36.4-46.9,57.8c-12.6,21.4-22.3,44.6-28.3,68.7c-6,24.1-8.3,49.1-7,73.9c1.2,24.8,6,49.4,14.3,72.8
					c8.3,23.4,20.2,45.5,34.9,65.6c14.7,20,32.4,37.9,52.4,52.9C529.2,924.6,551.3,936.8,574.8,945.4z"/>
				<path class="st9" d="M772.6,478.4c21.8,10.6,42.2,24.4,60.2,40.7c18,16.5,33.5,35.5,46.1,56.4c25.3,41.8,37.7,91.1,35.9,140
					c-1.8,48.8-18,97.1-46.4,136.9c-14.2,19.9-31.1,37.7-50.3,52.8c-19.2,15-40.6,27.1-63.1,36c22.4-9.5,43.3-22.2,62-37.5
					c18.8-15.2,35.3-33.1,49-53c13.7-19.9,24.7-41.6,32.3-64.4c7.6-22.9,11.9-46.8,12.7-70.9c1-24.1-1.5-48.3-7.3-71.6
					c-5.8-23.4-15.2-45.8-27.3-66.7c-12.2-20.8-27.3-39.9-44.9-56.5C814,503.8,794.1,489.6,772.6,478.4z"/>
				<path class="st9" d="M597.6,918.4c-21.9-6.2-42.8-15.9-61.8-28.5c-19-12.7-35.9-28.3-50.2-46.1c-28.6-35.6-45.7-80.2-48.1-125.9
					c-2.6-45.6,9.5-91.9,34.1-130.4c12.2-19.3,27.4-36.6,44.9-51.3c17.5-14.6,37.3-26.5,58.3-35.1c-41.9,17.7-78,48.6-102.1,87
					c-24.2,38.4-36,84.4-33.2,129.6c2.2,45.2,18.9,89.7,47.2,125.2C514.8,878.6,554,905.3,597.6,918.4z"/>
				<path class="st9" d="M743.7,501.2c20.7,8.4,40.2,20,57.5,34.3c17.2,14.3,32.3,31.3,44.5,50.1c24.5,37.6,37.1,82.9,35.5,127.8
					c-1.4,44.9-17.1,89.2-44.1,125.1c-13.5,17.9-29.7,33.8-47.8,47c-18.2,13-38.4,23.3-59.7,30.3c42.4-14.6,79.9-42.2,106.5-78
					c26.7-35.8,42-79.8,43.2-124.4c1.8-44.5-10.4-89.5-34.6-127C820.5,548.8,785,518.6,743.7,501.2z"/>
				<path class="st9" d="M605.1,912.7c-22.1-5.5-43.2-14.7-62.5-26.9c-19.2-12.3-36.4-27.7-50.8-45.4
					c-28.9-35.4-45.8-80.5-47.4-126.2c-1.8-45.7,11.4-91.9,37.5-129.5c13-18.8,29-35.5,47.2-49.2c18.2-13.7,38.6-24.4,60.2-31.7
					c-42.8,15.4-80.2,44.7-105.5,82.2c-12.6,18.7-22.4,39.4-28.6,61.1c-6.2,21.7-8.9,44.4-7.9,67c0.8,22.5,5.2,45,13,66.2
					c7.8,21.2,19.2,41,33.2,58.8C521.6,874.4,561.2,900.7,605.1,912.7z"/>
				<path class="st9" d="M729.2,503.7c21.5,7.2,41.8,17.9,60,31.5c18.1,13.7,34.1,30.3,47.1,49c26.1,37.3,39.4,83.3,37.8,128.9
					c-1.4,45.6-17.9,90.6-46.5,126c-14.2,17.8-31.3,33.2-50.3,45.6c-19.1,12.3-40.1,21.6-62,27.3c43.6-12.3,82.9-38.9,110.6-74.3
					c13.9-17.8,25.1-37.6,32.7-58.8c7.7-21.1,12-43.5,12.7-66c0.8-22.5-1.9-45.1-8.2-66.7c-6.2-21.6-16-42.2-28.6-60.8
					C809.2,548.2,771.9,519,729.2,503.7z"/>
				<path class="st9" d="M632,839.8c-32.8-6.4-62.8-25.5-82.8-52.3c-20.2-26.7-29.9-61.2-26.6-94.6c3.1-33.4,19-65.4,43.7-88.1
					c24.6-22.8,57.8-36.3,91.4-36.5c33.6-0.3,67.1,12.1,92.2,34.5c25.2,22.1,42.1,53.7,45.6,87.1c3.8,33.3-4.7,68-24.4,95.1
					c-19.5,27.2-49.1,46.9-81.7,54.1c32.6-7.5,61.8-27.5,80.9-54.7c19.5-27,27.8-61.5,23.9-94.4c-3.6-33.1-20.4-64.2-45.4-86
					c-24.9-22-57.9-34.1-91.1-33.7c-33.2,0.1-65.9,13.2-90.3,35.7C543,628.4,527.1,660,524,693c-3.4,33.1,6.1,67.2,26,93.8
					C569.6,813.7,599.3,833.1,632,839.8z"/>
				<path class="st9" d="M641.3,836c-32.2-4.1-62.6-21-83.4-46c-21-24.9-32-57.9-30.3-90.4c1.3-32.6,15.4-64.4,38.6-87.4
					c23-23.2,55-37.1,87.7-38.3c32.6-1.4,65.6,9.8,90.5,31c25.1,20.9,41.7,51.6,45.6,84c4.2,32.3-3.9,66.1-22.9,92.6
					c-18.9,26.5-47.7,45.7-79.4,52.6c31.7-7.2,60.2-26.6,78.6-53.2c18.7-26.4,26.6-59.9,22.3-91.9c-4-32-20.6-62.2-45.4-82.8
					c-24.6-20.8-57.2-31.8-89.3-30.3c-32.1,1-63.7,14.6-86.6,37.4c-23,22.6-37,54-38.4,86.3c-1.8,32.2,9.1,64.9,29.7,89.7
					C579.1,814.4,609.1,831.5,641.3,836z"/>
				<path class="st9" d="M646.5,874.3c-21.1-1.4-42-6.7-61.2-15.7c-19.2-9.1-36.6-21.9-51.1-37.5c-29.2-31.1-45.6-73.6-45.4-116.3
					c0.1-42.7,17.1-85,46.6-115.8c14.7-15.4,32.3-28,51.6-36.9c19.3-8.8,40.2-13.9,61.4-15.1c-42.2,3.1-82.7,22.7-111.3,53.5
					c-14.3,15.4-25.8,33.3-33.5,52.9c-7.8,19.5-11.8,40.4-11.8,61.4c-0.1,21,3.6,41.9,11.2,61.5c7.5,19.6,18.8,37.7,32.9,53.2
					C564,850.8,604.3,870.8,646.5,874.3z"/>
				<path class="st9" d="M669.9,537.1c21.1,1.1,42,6.2,61.2,15c19.2,8.8,36.8,21.4,51.5,36.7c29.6,30.5,46.8,72.7,47,115.3
					c0.5,42.5-15.7,85-44.5,116.2c-14.4,15.6-31.6,28.6-50.7,37.8c-19.1,9.2-39.9,14.7-60.9,16.2c42-3.9,82.1-24.2,109.9-55.5
					c13.9-15.6,25.1-33.7,32.5-53.3c7.4-19.6,11-40.5,10.8-61.4c-0.1-20.9-4.2-41.8-12-61.2c-7.8-19.4-19.4-37.3-33.7-52.6
					C752.4,559.6,712,540.2,669.9,537.1z"/>
				<path class="st9" d="M642.5,882.2c-20.7-1.9-41-7.3-59.8-16.2c-18.8-8.9-35.9-21.2-50.5-36c-29.3-29.6-47.5-69.8-50.5-111.4
					c-3.2-41.6,9.2-84,33.9-117.5c12.3-16.8,27.5-31.4,44.8-42.9c17.3-11.5,36.7-19.9,56.8-24.6c-40.3,10.1-76.4,34.9-100.6,68.3
					c-24.4,33.3-36.4,75.5-33,116.6c2.7,41.2,20.6,81.1,49.5,110.6C561.9,858.8,601.2,877.9,642.5,882.2z"/>
				<path class="st9" d="M699.2,533.1c20.3,4.5,39.8,12.8,57.3,24.1c17.5,11.4,32.9,25.9,45.4,42.7c25.1,33.4,37.8,75.9,34.9,117.7
					c-2.7,41.8-20.9,82.2-50.2,112C772,844.6,754.8,857,736,865.9c-18.9,8.9-39.3,14.4-60,16.3c41.5-4.3,81-23.6,109.8-53.4
					c29-29.7,46.7-69.9,49.2-111.3c3.1-41.3-9.2-83.6-34-116.8C776.3,567.3,739.8,542.8,699.2,533.1z"/>
			</g>
			<circle class="st11" cx="659.3" cy="705.8" r="4.6"/>
		</g>
		<g>
			
				<rect x="936.9" y="826.9" transform="matrix(0.4984 0.867 -0.867 0.4984 1203.9692 -400.9936)" class="st28" width="23.3" height="26"/>
			
				<ellipse transform="matrix(0.2606 -0.9654 0.9654 0.2606 402.3379 1299.5216)" class="st29" cx="1049.6" cy="387.1" rx="89.4" ry="89.4"/>
			<ellipse transform="matrix(0.2606 -0.9654 0.9654 0.2606 402.3379 1299.5216)" cx="1049.6" cy="387.1" rx="81.5" ry="81.5"/>
			
				<ellipse transform="matrix(0.2606 -0.9654 0.9654 0.2606 424.683 1362.6714)" class="st1" cx="1102" cy="404.1" rx="8.8" ry="8.8"/>
			<polygon class="st24" points="1085,255.9 1063.2,250 1051,294.9 1054.9,317.7 1067.4,321 1079.9,324.4 1094.7,306.7 
				1106.9,261.8 			"/>
			<polygon class="st23" points="1036.7,480.6 1078.9,324.1 1055.9,317.9 1016.1,465.3 			"/>
			
				<rect x="1042.6" y="317.1" transform="matrix(0.9654 0.2606 -0.2606 0.9654 134.1508 -259.3643)" class="st30" width="4.8" height="118.1"/>
			<path class="st31" d="M1046,354.9l-17.1,63.4c3.2,2.3,6.9,4,10.9,5.1c4,1.1,8.1,1.4,12,1.1l17.1-63.4c-3.2-2.3-6.9-4-10.9-5.1
				S1049.9,354.6,1046,354.9z"/>
			<polyline points="968.4,843.4 965.2,845.2 952.3,822.8 955.5,821 			"/>
			<line x1="955.5" y1="821" x2="968.4" y2="843.4"/>
			<path d="M934.7,831.2l-45,25.9c-2.3,1.3-3.1,4.3-1.8,6.6l9.6,16.7c1.3,2.3,4.3,3.1,6.6,1.8l45-25.9L934.7,831.2z"/>
			<g>
				
					<rect x="905.4" y="847.5" transform="matrix(0.4984 0.867 -0.867 0.4984 1197.8607 -357.5168)" class="st28" width="5" height="17.7"/>
				
					<rect x="911.3" y="857.9" transform="matrix(0.4984 0.867 -0.867 0.4984 1209.8339 -357.4832)" class="st28" width="5" height="17.7"/>
			</g>
			<path class="st31" d="M1033.6,491.9l14.2-52.6l-22.7-7.3l-16.5,61c0.6,1.2,29.2,136.7,40.9,194.6c3.3,16.5-1.9,49-17.3,69.1
				c-24,31.4-78.1,66.4-79,66.9l11.8,19.7c3.8-2.3,58.8-37.8,85.4-72.7c10.7-14,19.2-33.2,23.3-52.5
				C1079,693.9,1042.8,537.1,1033.6,491.9z"/>
			<polygon class="st32" points="1067.4,321 1079.9,324.4 1094.7,306.7 1051,294.9 1054.9,317.7 			"/>
			
				<ellipse transform="matrix(0.2606 -0.9654 0.9654 0.2606 402.3379 1299.5216)" class="st23" cx="1049.6" cy="387.1" rx="32.2" ry="32.2"/>
			<ellipse transform="matrix(0.2606 -0.9654 0.9654 0.2606 402.3379 1299.5216)" cx="1049.6" cy="387.1" rx="25.4" ry="25.4"/>
			
				<ellipse transform="matrix(0.2606 -0.9654 0.9654 0.2606 402.3379 1299.5216)" class="st23" cx="1049.6" cy="387.1" rx="20.1" ry="20.1"/>
			
				<rect x="1060.7" y="251.4" transform="matrix(0.9654 0.2606 -0.2606 0.9654 108.3922 -268.1405)" class="st1" width="9.1" height="46.6"/>
		</g>
	</g>
</g>
<g id="text">
</g>
</svg>
