<?xml version="1.0" encoding="utf-8"?>
<!-- Generator: Adobe Illustrator 19.0.0, SVG Export Plug-In . SVG Version: 6.00 Build 0)  -->
<svg version="1.1" xmlns="http://www.w3.org/2000/svg" xmlns:xlink="http://www.w3.org/1999/xlink" x="0px" y="0px" width="1400px"
	 height="1400px" viewBox="0 0 1400 1400" enable-background="new 0 0 1400 1400" xml:space="preserve">
<g id="BG">
	<rect id="XMLID_257_" x="0" fill="#00006B" width="1400" height="1400"/>
</g>
<g id="OBJ">
	<g id="XMLID_897_">
		<g id="XMLID_298_">
			<path id="XMLID_280_" fill="#5E86FF" d="M718,228.4l-49.8,297.2H161.5l-49.8-297.2c-8.1-48.4,29.2-92.5,78.3-92.5h449.7
				C688.8,135.9,726.1,180,718,228.4z"/>
			<linearGradient id="XMLID_63_" gradientUnits="userSpaceOnUse" x1="414.8827" y1="502.7444" x2="414.8827" y2="584.2164">
				<stop  offset="0" style="stop-color:#4568FF"/>
				<stop  offset="1" style="stop-color:#5E86FF"/>
			</linearGradient>
			<path id="XMLID_278_" fill="url(#XMLID_63_)" d="M668.3,525.7l-6.1,36.4c-2.1,12.3-12.8,21.4-25.3,21.4h-444
				c-12.5,0-23.2-9-25.3-21.4l-6.1-36.4H668.3z"/>
			<circle id="XMLID_204_" fill="#041CA9" cx="201.5" cy="221.8" r="59.3"/>
			<circle id="XMLID_207_" fill="#041CA9" cx="348.2" cy="316.4" r="59.3"/>
			<circle id="XMLID_210_" fill="#041CA9" cx="260.8" cy="445.1" r="59.3"/>
			<circle id="XMLID_206_" fill="#041CA9" cx="230.1" cy="334.4" r="44.6"/>
			<circle id="XMLID_226_" fill="#041CA9" cx="631.6" cy="221.8" r="59.3"/>
			<circle id="XMLID_217_" fill="#041CA9" cx="484.9" cy="316.4" r="59.3"/>
			<circle id="XMLID_212_" fill="#041CA9" cx="572.2" cy="445.1" r="59.3"/>
			<circle id="XMLID_208_" fill="#041CA9" cx="603" cy="334.4" r="44.6"/>
			<path id="XMLID_205_" fill="#041CA9" d="M403,180.9H293.4c-2.4,0-4.3-1.9-4.3-4.3v-5.5c0-2.4,1.9-4.3,4.3-4.3H403
				c2.4,0,4.3,1.9,4.3,4.3v5.5C407.3,178.9,405.3,180.9,403,180.9z"/>
			<path id="XMLID_211_" fill="#041CA9" d="M403,208.7H293.4c-2.4,0-4.3-1.9-4.3-4.3v-5.5c0-2.4,1.9-4.3,4.3-4.3H403
				c2.4,0,4.3,1.9,4.3,4.3v5.5C407.3,206.8,405.3,208.7,403,208.7z"/>
			<path id="XMLID_215_" fill="#041CA9" d="M403,236.5H293.4c-2.4,0-4.3-1.9-4.3-4.3v-5.5c0-2.4,1.9-4.3,4.3-4.3H403
				c2.4,0,4.3,1.9,4.3,4.3v5.5C407.3,234.6,405.3,236.5,403,236.5z"/>
			<path id="XMLID_244_" fill="#041CA9" d="M539.7,180.9H430.1c-2.4,0-4.3-1.9-4.3-4.3v-5.5c0-2.4,1.9-4.3,4.3-4.3h109.6
				c2.4,0,4.3,1.9,4.3,4.3v5.5C544,178.9,542.1,180.9,539.7,180.9z"/>
			<path id="XMLID_241_" fill="#041CA9" d="M539.7,208.7H430.1c-2.4,0-4.3-1.9-4.3-4.3v-5.5c0-2.4,1.9-4.3,4.3-4.3h109.6
				c2.4,0,4.3,1.9,4.3,4.3v5.5C544,206.8,542.1,208.7,539.7,208.7z"/>
			<path id="XMLID_219_" fill="#041CA9" d="M539.7,236.5H430.1c-2.4,0-4.3-1.9-4.3-4.3v-5.5c0-2.4,1.9-4.3,4.3-4.3h109.6
				c2.4,0,4.3,1.9,4.3,4.3v5.5C544,234.6,542.1,236.5,539.7,236.5z"/>
			<rect id="XMLID_209_" x="378.6" y="420.6" fill="#041CA9" width="88.5" height="54.6"/>
			<circle id="XMLID_247_" fill="#0448DB" cx="348.2" cy="316.4" r="30.7"/>
			<circle id="XMLID_266_" fill="#0448DB" cx="230.1" cy="334.4" r="18"/>
			<circle id="XMLID_267_" fill="#0448DB" cx="601.7" cy="334.4" r="18"/>
			<circle id="XMLID_260_" fill="#0448DB" cx="260.8" cy="445.1" r="30.7"/>
			<circle id="XMLID_263_" fill="#0448DB" cx="572.2" cy="445.1" r="30.7"/>
			<circle id="XMLID_250_" fill="#0448DB" cx="201.5" cy="223" r="30.7"/>
			<circle id="XMLID_253_" fill="#0448DB" cx="632.4" cy="223" r="30.7"/>
			<circle id="XMLID_237_" fill="#0448DB" cx="484.9" cy="316.4" r="30.7"/>
			<g id="XMLID_234_">
				<rect id="XMLID_202_" x="291.5" y="533.7" fill="#041CA9" width="18" height="7.7"/>
				<rect id="XMLID_270_" x="291.5" y="546.8" fill="#041CA9" width="18" height="7.7"/>
				<rect id="XMLID_271_" x="291.5" y="560" fill="#041CA9" width="18" height="7.7"/>
			</g>
			<g id="XMLID_273_">
				<rect id="XMLID_279_" x="317.3" y="533.7" fill="#041CA9" width="18" height="7.7"/>
				<rect id="XMLID_277_" x="317.3" y="546.8" fill="#041CA9" width="18" height="7.7"/>
				<rect id="XMLID_275_" x="317.3" y="560" fill="#041CA9" width="18" height="7.7"/>
			</g>
			<g id="XMLID_281_">
				<rect id="XMLID_284_" x="343.1" y="533.7" fill="#041CA9" width="18" height="7.7"/>
				<rect id="XMLID_283_" x="343.1" y="546.8" fill="#041CA9" width="18" height="7.7"/>
				<rect id="XMLID_282_" x="343.1" y="560" fill="#041CA9" width="18" height="7.7"/>
			</g>
			<circle id="XMLID_272_" fill="#041CA9" cx="248.1" cy="552.7" r="22.5"/>
			<circle id="XMLID_285_" fill="#041CA9" cx="198.6" cy="545.7" r="8.2"/>
			<circle id="XMLID_287_" fill="#0448DB" cx="248.1" cy="540.3" r="5.5"/>
			<rect id="XMLID_286_" x="396.9" y="534.8" fill="#041CA9" width="6.1" height="34.7"/>
			<rect id="XMLID_288_" x="396.9" y="534.8" fill="#0448DB" width="6.1" height="10.9"/>
			<rect id="XMLID_291_" x="411.8" y="534.8" fill="#041CA9" width="6.1" height="34.7"/>
			<rect id="XMLID_290_" x="411.8" y="548.5" fill="#0448DB" width="6.1" height="10.9"/>
			<rect id="XMLID_293_" x="426.8" y="534.8" fill="#041CA9" width="6.1" height="34.7"/>
			<rect id="XMLID_292_" x="426.8" y="534.8" fill="#0448DB" width="6.1" height="10.9"/>
			<rect id="XMLID_296_" x="441.7" y="534.8" fill="#041CA9" width="6.1" height="34.7"/>
			<rect id="XMLID_294_" x="441.7" y="544.5" fill="#0448DB" width="6.1" height="10.9"/>
			<linearGradient id="XMLID_109_" gradientUnits="userSpaceOnUse" x1="568.8482" y1="529.7751" x2="568.8482" y2="614.9985">
				<stop  offset="0" style="stop-color:#FF9AF5"/>
				<stop  offset="1" style="stop-color:#5E86FF"/>
			</linearGradient>
			<rect id="XMLID_289_" x="515.6" y="540.3" fill="url(#XMLID_109_)" width="106.5" height="27.4"/>
		</g>
		<g id="XMLID_119_">
			<path id="XMLID_203_" fill="#041CA9" d="M1281,460.4H998.1c-4.6,0-8.4-3.8-8.4-8.4V156.8c0-4.6,3.8-8.4,8.4-8.4H1281
				c4.6,0,8.4,3.8,8.4,8.4V452C1289.4,456.6,1285.6,460.4,1281,460.4z"/>
			<path id="XMLID_213_" fill="#5E86FF" d="M1055.9,411.6h-36.9c-4.2,0-7.7-3.4-7.7-7.7v-36.6c0-4.2,3.4-7.7,7.7-7.7h36.9
				c4.2,0,7.7,3.4,7.7,7.7V404C1063.6,408.2,1060.1,411.6,1055.9,411.6z"/>
			<path id="XMLID_216_" fill="#0448DB" d="M1124.1,411.6h-36.9c-4.2,0-7.7-3.4-7.7-7.7v-36.6c0-4.2,3.4-7.7,7.7-7.7h36.9
				c4.2,0,7.7,3.4,7.7,7.7V404C1131.8,408.2,1128.4,411.6,1124.1,411.6z"/>
			<linearGradient id="XMLID_110_" gradientUnits="userSpaceOnUse" x1="1173.9171" y1="369.8676" x2="1173.9171" y2="464.4276">
				<stop  offset="0" style="stop-color:#FF9AF5"/>
				<stop  offset="1" style="stop-color:#5E86FF"/>
			</linearGradient>
			<path id="XMLID_218_" fill="url(#XMLID_110_)" d="M1192.4,411.6h-36.9c-4.2,0-7.7-3.4-7.7-7.7v-36.6c0-4.2,3.4-7.7,7.7-7.7h36.9
				c4.2,0,7.7,3.4,7.7,7.7V404C1200.1,408.2,1196.6,411.6,1192.4,411.6z"/>
			<path id="XMLID_220_" fill="#0448DB" d="M1260.6,411.6h-36.9c-4.2,0-7.7-3.4-7.7-7.7v-36.6c0-4.2,3.4-7.7,7.7-7.7h36.9
				c4.2,0,7.7,3.4,7.7,7.7V404C1268.3,408.2,1264.9,411.6,1260.6,411.6z"/>
			<linearGradient id="XMLID_111_" gradientUnits="userSpaceOnUse" x1="1037.4109" y1="302.6752" x2="1037.4109" y2="397.2352">
				<stop  offset="0" style="stop-color:#FF9AF5"/>
				<stop  offset="1" style="stop-color:#5E86FF"/>
			</linearGradient>
			<path id="XMLID_308_" fill="url(#XMLID_111_)" d="M1055.9,344.4h-36.9c-4.2,0-7.7-3.4-7.7-7.7v-36.6c0-4.2,3.4-7.7,7.7-7.7h36.9
				c4.2,0,7.7,3.4,7.7,7.7v36.6C1063.6,341,1060.1,344.4,1055.9,344.4z"/>
			<path id="XMLID_232_" fill="#5E86FF" d="M1124.1,344.4h-36.9c-4.2,0-7.7-3.4-7.7-7.7v-36.6c0-4.2,3.4-7.7,7.7-7.7h36.9
				c4.2,0,7.7,3.4,7.7,7.7v36.6C1131.8,341,1128.4,344.4,1124.1,344.4z"/>
			<linearGradient id="XMLID_112_" gradientUnits="userSpaceOnUse" x1="1173.9171" y1="302.6752" x2="1173.9171" y2="397.2352">
				<stop  offset="0" style="stop-color:#FF9AF5"/>
				<stop  offset="1" style="stop-color:#5E86FF"/>
			</linearGradient>
			<path id="XMLID_222_" fill="url(#XMLID_112_)" d="M1192.4,344.4h-36.9c-4.2,0-7.7-3.4-7.7-7.7v-36.6c0-4.2,3.4-7.7,7.7-7.7h36.9
				c4.2,0,7.7,3.4,7.7,7.7v36.6C1200.1,341,1196.6,344.4,1192.4,344.4z"/>
			<linearGradient id="XMLID_113_" gradientUnits="userSpaceOnUse" x1="1242.1702" y1="302.6752" x2="1242.1702" y2="397.2352">
				<stop  offset="0" style="stop-color:#FF9AF5"/>
				<stop  offset="1" style="stop-color:#5E86FF"/>
			</linearGradient>
			<path id="XMLID_221_" fill="url(#XMLID_113_)" d="M1260.6,344.4h-36.9c-4.2,0-7.7-3.4-7.7-7.7v-36.6c0-4.2,3.4-7.7,7.7-7.7h36.9
				c4.2,0,7.7,3.4,7.7,7.7v36.6C1268.3,341,1264.9,344.4,1260.6,344.4z"/>
			<path id="XMLID_313_" fill="#0448DB" d="M1055.9,277.2h-36.9c-4.2,0-7.7-3.4-7.7-7.7V233c0-4.2,3.4-7.7,7.7-7.7h36.9
				c4.2,0,7.7,3.4,7.7,7.7v36.6C1063.6,273.8,1060.1,277.2,1055.9,277.2z"/>
			<linearGradient id="XMLID_114_" gradientUnits="userSpaceOnUse" x1="1105.6639" y1="235.4828" x2="1105.6639" y2="330.0428">
				<stop  offset="0" style="stop-color:#FF9AF5"/>
				<stop  offset="1" style="stop-color:#5E86FF"/>
			</linearGradient>
			<path id="XMLID_312_" fill="url(#XMLID_114_)" d="M1124.1,277.2h-36.9c-4.2,0-7.7-3.4-7.7-7.7V233c0-4.2,3.4-7.7,7.7-7.7h36.9
				c4.2,0,7.7,3.4,7.7,7.7v36.6C1131.8,273.8,1128.4,277.2,1124.1,277.2z"/>
			<path id="XMLID_311_" fill="#0448DB" d="M1192.4,277.2h-36.9c-4.2,0-7.7-3.4-7.7-7.7V233c0-4.2,3.4-7.7,7.7-7.7h36.9
				c4.2,0,7.7,3.4,7.7,7.7v36.6C1200.1,273.8,1196.6,277.2,1192.4,277.2z"/>
			<path id="XMLID_310_" fill="#5E86FF" d="M1260.6,277.2h-36.9c-4.2,0-7.7-3.4-7.7-7.7V233c0-4.2,3.4-7.7,7.7-7.7h36.9
				c4.2,0,7.7,3.4,7.7,7.7v36.6C1268.3,273.8,1264.9,277.2,1260.6,277.2z"/>
			<path id="XMLID_214_" fill="#0448DB" d="M1172.9,201.7h-66.8c-2.4,0-4.3-1.9-4.3-4.3v-26.2c0-2.4,1.9-4.3,4.3-4.3h66.8
				c2.4,0,4.3,1.9,4.3,4.3v26.2C1177.3,199.8,1175.3,201.7,1172.9,201.7z"/>
			<path id="XMLID_324_" fill="#5E86FF" d="M1037.4,435.7c0,5.4-4.4,9.8-9.8,9.8c-5.4,0-9.8-4.4-9.8-9.8c0-5.1,3.9-9.3,8.9-9.8
				c0.3,0,0.6,0,0.9,0c0.3,0,0.6,0,0.9,0C1033.5,426.4,1037.4,430.5,1037.4,435.7z"/>
			<path id="XMLID_322_" fill="#041CA9" d="M1028.5,425.9v4.4h-1.8v-4.4c0.3,0,0.6,0,0.9,0C1027.9,425.9,1028.2,425.9,1028.5,425.9z
				"/>
			<path id="XMLID_316_" fill="#5E86FF" d="M1075,435.7c0,5.4-4.4,9.8-9.8,9.8c-5.4,0-9.8-4.4-9.8-9.8c0-5.1,3.9-9.3,8.9-9.8
				c0.3,0,0.6,0,0.9,0c0.3,0,0.6,0,0.9,0C1071.1,426.4,1075,430.5,1075,435.7z"/>
			<path id="XMLID_309_" fill="#041CA9" d="M1066.1,425.9v4.4h-1.8v-4.4c0.3,0,0.6,0,0.9,0C1065.5,425.9,1065.8,425.9,1066.1,425.9z
				"/>
			<path id="XMLID_326_" fill="#5E86FF" d="M1112.6,435.7c0,5.4-4.4,9.8-9.8,9.8c-5.4,0-9.8-4.4-9.8-9.8c0-5.1,3.9-9.3,8.9-9.8
				c0.3,0,0.6,0,0.9,0c0.3,0,0.6,0,0.9,0C1108.7,426.4,1112.6,430.5,1112.6,435.7z"/>
			<path id="XMLID_317_" fill="#041CA9" d="M1103.7,425.9v4.4h-1.8v-4.4c0.3,0,0.6,0,0.9,0C1103.1,425.9,1103.4,425.9,1103.7,425.9z
				"/>
			<path id="XMLID_330_" fill="#5E86FF" d="M1150.1,435.7c0,5.4-4.4,9.8-9.8,9.8c-5.4,0-9.8-4.4-9.8-9.8c0-5.1,3.9-9.3,8.9-9.8
				c0.3,0,0.6,0,0.9,0c0.3,0,0.6,0,0.9,0C1146.2,426.4,1150.1,430.5,1150.1,435.7z"/>
			<path id="XMLID_327_" fill="#041CA9" d="M1141.2,425.9v4.4h-1.8v-4.4c0.3,0,0.6,0,0.9,0C1140.6,425.9,1141,425.9,1141.2,425.9z"
				/>
			<path id="XMLID_334_" fill="#5E86FF" d="M1187.7,435.7c0,5.4-4.4,9.8-9.8,9.8c-5.4,0-9.8-4.4-9.8-9.8c0-5.1,3.9-9.3,8.9-9.8
				c0.3,0,0.6,0,0.9,0c0.3,0,0.6,0,0.9,0C1183.8,426.4,1187.7,430.5,1187.7,435.7z"/>
			<path id="XMLID_331_" fill="#041CA9" d="M1178.8,425.9v4.4h-1.8v-4.4c0.3,0,0.6,0,0.9,0C1178.2,425.9,1178.5,425.9,1178.8,425.9z
				"/>
			<path id="XMLID_338_" fill="#5E86FF" d="M1225.3,435.7c0,5.4-4.4,9.8-9.8,9.8c-5.4,0-9.8-4.4-9.8-9.8c0-5.1,3.9-9.3,8.9-9.8
				c0.3,0,0.6,0,0.9,0c0.3,0,0.6,0,0.9,0C1221.4,426.4,1225.3,430.5,1225.3,435.7z"/>
			<path id="XMLID_335_" fill="#041CA9" d="M1216.4,425.9v4.4h-1.8v-4.4c0.3,0,0.6,0,0.9,0C1215.8,425.9,1216.1,425.9,1216.4,425.9z
				"/>
			<path id="XMLID_342_" fill="#5E86FF" d="M1262.9,435.7c0,5.4-4.4,9.8-9.8,9.8c-5.4,0-9.8-4.4-9.8-9.8c0-5.1,3.9-9.3,8.9-9.8
				c0.3,0,0.6,0,0.9,0c0.3,0,0.6,0,0.9,0C1259,426.4,1262.9,430.5,1262.9,435.7z"/>
			<path id="XMLID_339_" fill="#041CA9" d="M1254,425.9v4.4h-1.8v-4.4c0.3,0,0.6,0,0.9,0C1253.4,425.9,1253.7,425.9,1254,425.9z"/>
			<path id="XMLID_307_" fill="#5E86FF" d="M1037.9,181h-20.2c-1.9,0-3.5-1.6-3.5-3.5v-7.2c0-1.9,1.6-3.5,3.5-3.5h20.2
				c1.9,0,3.5,1.6,3.5,3.5v7.2C1041.4,179.4,1039.8,181,1037.9,181z"/>
			<path id="XMLID_344_" fill="#0448DB" d="M1037.9,201.7h-20.2c-1.9,0-3.5-1.6-3.5-3.5V191c0-1.9,1.6-3.5,3.5-3.5h20.2
				c1.9,0,3.5,1.6,3.5,3.5v7.2C1041.4,200.1,1039.8,201.7,1037.9,201.7z"/>
			<path id="XMLID_346_" fill="#0448DB" d="M1073.7,181h-20.2c-1.9,0-3.5-1.6-3.5-3.5v-7.2c0-1.9,1.6-3.5,3.5-3.5h20.2
				c1.9,0,3.5,1.6,3.5,3.5v7.2C1077.2,179.4,1075.6,181,1073.7,181z"/>
			<path id="XMLID_345_" fill="#0448DB" d="M1073.7,201.7h-20.2c-1.9,0-3.5-1.6-3.5-3.5V191c0-1.9,1.6-3.5,3.5-3.5h20.2
				c1.9,0,3.5,1.6,3.5,3.5v7.2C1077.2,200.1,1075.6,201.7,1073.7,201.7z"/>
			<circle id="XMLID_343_" fill="#5E86FF" cx="1193.3" cy="173.9" r="7.1"/>
			<circle id="XMLID_348_" fill="#0448DB" cx="1216" cy="173.9" r="7.1"/>
			<circle id="XMLID_349_" fill="#5E86FF" cx="1238.7" cy="173.9" r="7.1"/>
			<circle id="XMLID_350_" fill="#5E86FF" cx="1261.4" cy="173.9" r="7.1"/>
			<circle id="XMLID_354_" fill="#0448DB" cx="1193.3" cy="194.6" r="7.1"/>
			<circle id="XMLID_353_" fill="#5E86FF" cx="1216" cy="194.6" r="7.1"/>
			<circle id="XMLID_352_" fill="#0448DB" cx="1238.7" cy="194.6" r="7.1"/>
			<circle id="XMLID_351_" fill="#5E86FF" cx="1261.4" cy="194.6" r="7.1"/>
		</g>
		<g id="XMLID_406_">
			<path id="XMLID_126_" fill="#0448DB" d="M995.3,1245.3V635.8c0-9.4,7.6-17.1,17.1-17.1H1267c9.4,0,17.1,7.6,17.1,17.1v609.5
				c0,9.4-7.6,17.1-17.1,17.1h-254.7C1002.9,1262.3,995.3,1254.7,995.3,1245.3z"/>
			<g id="XMLID_125_">
				<path id="XMLID_31_" fill="#FFFFFF" d="M1019.1,682.5v-38.4c0-0.3,0.3-0.6,0.6-0.6h155.3c0.3,0,0.6,0.3,0.6,0.6v38.4
					c0,0.3-0.3,0.6-0.6,0.6h-155.3C1019.4,683.1,1019.1,682.8,1019.1,682.5z"/>
				<g id="XMLID_30_">
					<path id="XMLID_106_" fill="#041095" d="M1175.1,685.1h-155.3c-1.4,0-2.6-1.2-2.6-2.6v-38.4c0-1.4,1.2-2.6,2.6-2.6h155.3
						c1.4,0,2.6,1.2,2.6,2.6v38.4C1177.7,683.9,1176.5,685.1,1175.1,685.1z M1021.1,681.1h152.6v-35.6h-152.6V681.1z"/>
				</g>
			</g>
			<g id="XMLID_127_">
				<path id="XMLID_29_" fill="#FFFFFF" d="M1019.1,722.1v-38.4c0-0.3,0.3-0.6,0.6-0.6h155.3c0.3,0,0.6,0.3,0.6,0.6v38.4
					c0,0.3-0.3,0.6-0.6,0.6h-155.3C1019.4,722.7,1019.1,722.4,1019.1,722.1z"/>
				<g id="XMLID_28_">
					<path id="XMLID_103_" fill="#041095" d="M1175.1,724.7h-155.3c-1.4,0-2.6-1.2-2.6-2.6v-38.4c0-1.4,1.2-2.6,2.6-2.6h155.3
						c1.4,0,2.6,1.2,2.6,2.6v38.4C1177.7,723.5,1176.5,724.7,1175.1,724.7z M1021.1,720.7h152.6v-35.6h-152.6V720.7z"/>
				</g>
			</g>
			<g id="XMLID_128_">
				<path id="XMLID_27_" fill="#FFFFFF" d="M1019.1,761.7v-38.4c0-0.3,0.3-0.6,0.6-0.6h155.3c0.3,0,0.6,0.3,0.6,0.6v38.4
					c0,0.3-0.3,0.6-0.6,0.6h-155.3C1019.4,762.3,1019.1,762,1019.1,761.7z"/>
				<g id="XMLID_26_">
					<path id="XMLID_100_" fill="#041095" d="M1175.1,764.3h-155.3c-1.4,0-2.6-1.2-2.6-2.6v-38.4c0-1.4,1.2-2.6,2.6-2.6h155.3
						c1.4,0,2.6,1.2,2.6,2.6v38.4C1177.7,763.1,1176.5,764.3,1175.1,764.3z M1021.1,760.3h152.6v-35.6h-152.6V760.3z"/>
				</g>
			</g>
			<g id="XMLID_129_">
				<path id="XMLID_25_" fill="#FFFFFF" d="M1019.1,801.3v-38.4c0-0.3,0.3-0.6,0.6-0.6h155.3c0.3,0,0.6,0.3,0.6,0.6v38.4
					c0,0.3-0.3,0.6-0.6,0.6h-155.3C1019.4,801.9,1019.1,801.6,1019.1,801.3z"/>
				<g id="XMLID_24_">
					<path id="XMLID_97_" fill="#041095" d="M1175.1,803.9h-155.3c-1.4,0-2.6-1.2-2.6-2.6v-38.4c0-1.4,1.2-2.6,2.6-2.6h155.3
						c1.4,0,2.6,1.2,2.6,2.6v38.4C1177.7,802.7,1176.5,803.9,1175.1,803.9z M1021.1,799.9h152.6v-35.6h-152.6V799.9z"/>
				</g>
			</g>
			<g id="XMLID_130_">
				<path id="XMLID_23_" fill="#FFFFFF" d="M1019.1,840.9v-38.4c0-0.3,0.3-0.6,0.6-0.6h155.3c0.3,0,0.6,0.3,0.6,0.6v38.4
					c0,0.3-0.3,0.6-0.6,0.6h-155.3C1019.4,841.5,1019.1,841.2,1019.1,840.9z"/>
				<g id="XMLID_22_">
					<path id="XMLID_94_" fill="#041095" d="M1175.1,843.5h-155.3c-1.4,0-2.6-1.2-2.6-2.6v-38.4c0-1.4,1.2-2.6,2.6-2.6h155.3
						c1.4,0,2.6,1.2,2.6,2.6v38.4C1177.7,842.3,1176.5,843.5,1175.1,843.5z M1021.1,839.5h152.6v-35.6h-152.6V839.5z"/>
				</g>
			</g>
			<g id="XMLID_131_">
				<path id="XMLID_21_" fill="#FFFFFF" d="M1019.1,880.5v-38.4c0-0.3,0.3-0.6,0.6-0.6h155.3c0.3,0,0.6,0.3,0.6,0.6v38.4
					c0,0.3-0.3,0.6-0.6,0.6h-155.3C1019.4,881.1,1019.1,880.8,1019.1,880.5z"/>
				<g id="XMLID_20_">
					<path id="XMLID_91_" fill="#041095" d="M1175.1,883.1h-155.3c-1.4,0-2.6-1.2-2.6-2.6v-38.4c0-1.4,1.2-2.6,2.6-2.6h155.3
						c1.4,0,2.6,1.2,2.6,2.6v38.4C1177.7,881.9,1176.5,883.1,1175.1,883.1z M1021.1,879.1h152.6v-35.6h-152.6V879.1z"/>
				</g>
			</g>
			<g id="XMLID_132_">
				<path id="XMLID_19_" fill="#FFFFFF" d="M1019.1,920.1v-38.4c0-0.3,0.3-0.6,0.6-0.6h155.3c0.3,0,0.6,0.3,0.6,0.6v38.4
					c0,0.3-0.3,0.6-0.6,0.6h-155.3C1019.4,920.7,1019.1,920.5,1019.1,920.1z"/>
				<g id="XMLID_18_">
					<path id="XMLID_88_" fill="#041095" d="M1175.1,922.7h-155.3c-1.4,0-2.6-1.2-2.6-2.6v-38.4c0-1.4,1.2-2.6,2.6-2.6h155.3
						c1.4,0,2.6,1.2,2.6,2.6v38.4C1177.7,921.6,1176.5,922.7,1175.1,922.7z M1021.1,918.7h152.6v-35.6h-152.6V918.7z"/>
				</g>
			</g>
			<g id="XMLID_133_">
				<path id="XMLID_17_" fill="#FFFFFF" d="M1019.1,959.7v-38.4c0-0.3,0.3-0.6,0.6-0.6h155.3c0.3,0,0.6,0.3,0.6,0.6v38.4
					c0,0.3-0.3,0.6-0.6,0.6h-155.3C1019.4,960.3,1019.1,960.1,1019.1,959.7z"/>
				<g id="XMLID_16_">
					<path id="XMLID_85_" fill="#041095" d="M1175.1,962.3h-155.3c-1.4,0-2.6-1.2-2.6-2.6v-38.4c0-1.4,1.2-2.6,2.6-2.6h155.3
						c1.4,0,2.6,1.2,2.6,2.6v38.4C1177.7,961.2,1176.5,962.3,1175.1,962.3z M1021.1,958.3h152.6v-35.6h-152.6V958.3z"/>
				</g>
			</g>
			<g id="XMLID_134_">
				<path id="XMLID_15_" fill="#FFFFFF" d="M1019.1,999.3V961c0-0.3,0.3-0.6,0.6-0.6h155.3c0.3,0,0.6,0.3,0.6,0.6v38.4
					c0,0.3-0.3,0.6-0.6,0.6h-155.3C1019.4,1000,1019.1,999.7,1019.1,999.3z"/>
				<g id="XMLID_14_">
					<path id="XMLID_82_" fill="#041095" d="M1175.1,1002h-155.3c-1.4,0-2.6-1.2-2.6-2.6V961c0-1.4,1.2-2.6,2.6-2.6h155.3
						c1.4,0,2.6,1.2,2.6,2.6v38.4C1177.7,1000.8,1176.5,1002,1175.1,1002z M1021.1,998h152.6v-35.6h-152.6V998z"/>
				</g>
			</g>
			<g id="XMLID_135_">
				<path id="XMLID_13_" fill="#FFFFFF" d="M1019.1,1038.9v-38.4c0-0.3,0.3-0.6,0.6-0.6h155.3c0.3,0,0.6,0.3,0.6,0.6v38.4
					c0,0.3-0.3,0.6-0.6,0.6h-155.3C1019.4,1039.6,1019.1,1039.3,1019.1,1038.9z"/>
				<g id="XMLID_12_">
					<path id="XMLID_79_" fill="#041095" d="M1175.1,1041.6h-155.3c-1.4,0-2.6-1.2-2.6-2.6v-38.4c0-1.4,1.2-2.6,2.6-2.6h155.3
						c1.4,0,2.6,1.2,2.6,2.6v38.4C1177.7,1040.4,1176.5,1041.6,1175.1,1041.6z M1021.1,1037.6h152.6V1002h-152.6V1037.6z"/>
				</g>
			</g>
			<g id="XMLID_136_">
				<path id="XMLID_11_" fill="#FFFFFF" d="M1019.1,1078.5v-38.4c0-0.3,0.3-0.6,0.6-0.6h155.3c0.3,0,0.6,0.3,0.6,0.6v38.4
					c0,0.3-0.3,0.6-0.6,0.6h-155.3C1019.4,1079.2,1019.1,1078.9,1019.1,1078.5z"/>
				<g id="XMLID_10_">
					<path id="XMLID_76_" fill="#041095" d="M1175.1,1081.2h-155.3c-1.4,0-2.6-1.2-2.6-2.6v-38.4c0-1.4,1.2-2.6,2.6-2.6h155.3
						c1.4,0,2.6,1.2,2.6,2.6v38.4C1177.7,1080,1176.5,1081.2,1175.1,1081.2z M1021.1,1077.2h152.6v-35.6h-152.6V1077.2z"/>
				</g>
			</g>
			<g id="XMLID_137_">
				<path id="XMLID_9_" fill="#FFFFFF" d="M1019.1,1118.2v-38.4c0-0.3,0.3-0.6,0.6-0.6h155.3c0.3,0,0.6,0.3,0.6,0.6v38.4
					c0,0.3-0.3,0.6-0.6,0.6h-155.3C1019.4,1118.8,1019.1,1118.5,1019.1,1118.2z"/>
				<g id="XMLID_8_">
					<path id="XMLID_73_" fill="#041095" d="M1175.1,1120.8h-155.3c-1.4,0-2.6-1.2-2.6-2.6v-38.4c0-1.4,1.2-2.6,2.6-2.6h155.3
						c1.4,0,2.6,1.2,2.6,2.6v38.4C1177.7,1119.6,1176.5,1120.8,1175.1,1120.8z M1021.1,1116.8h152.6v-35.6h-152.6V1116.8z"/>
				</g>
			</g>
			<g id="XMLID_138_">
				<path id="XMLID_7_" fill="#FFFFFF" d="M1019.1,1157.8v-38.4c0-0.3,0.3-0.6,0.6-0.6h155.3c0.3,0,0.6,0.3,0.6,0.6v38.4
					c0,0.3-0.3,0.6-0.6,0.6h-155.3C1019.4,1158.4,1019.1,1158.1,1019.1,1157.8z"/>
				<g id="XMLID_6_">
					<path id="XMLID_70_" fill="#041095" d="M1175.1,1160.4h-155.3c-1.4,0-2.6-1.2-2.6-2.6v-38.4c0-1.4,1.2-2.6,2.6-2.6h155.3
						c1.4,0,2.6,1.2,2.6,2.6v38.4C1177.7,1159.2,1176.5,1160.4,1175.1,1160.4z M1021.1,1156.4h152.6v-35.6h-152.6V1156.4z"/>
				</g>
			</g>
			<g id="XMLID_139_">
				<path id="XMLID_5_" fill="#FFFFFF" d="M1019.1,1197.4V1159c0-0.3,0.3-0.6,0.6-0.6h155.3c0.3,0,0.6,0.3,0.6,0.6v38.4
					c0,0.3-0.3,0.6-0.6,0.6h-155.3C1019.4,1198,1019.1,1197.7,1019.1,1197.4z"/>
				<g id="XMLID_4_">
					<path id="XMLID_67_" fill="#041095" d="M1175.1,1200h-155.3c-1.4,0-2.6-1.2-2.6-2.6V1159c0-1.4,1.2-2.6,2.6-2.6h155.3
						c1.4,0,2.6,1.2,2.6,2.6v38.4C1177.7,1198.8,1176.5,1200,1175.1,1200z M1021.1,1196h152.6v-35.6h-152.6V1196z"/>
				</g>
			</g>
			<g id="XMLID_347_">
				<path id="XMLID_3_" fill="#FFFFFF" d="M1019.1,1237v-38.4c0-0.3,0.3-0.6,0.6-0.6h155.3c0.3,0,0.6,0.3,0.6,0.6v38.4
					c0,0.3-0.3,0.6-0.6,0.6h-155.3C1019.4,1237.6,1019.1,1237.3,1019.1,1237z"/>
				<g id="XMLID_2_">
					<path id="XMLID_64_" fill="#041095" d="M1175.1,1239.6h-155.3c-1.4,0-2.6-1.2-2.6-2.6v-38.4c0-1.4,1.2-2.6,2.6-2.6h155.3
						c1.4,0,2.6,1.2,2.6,2.6v38.4C1177.7,1238.4,1176.5,1239.6,1175.1,1239.6z M1021.1,1235.6h152.6V1200h-152.6V1235.6z"/>
				</g>
			</g>
			<rect id="XMLID_140_" x="1075.2" y="671.5" fill="#041CA9" width="100.4" height="23.2"/>
			<rect id="XMLID_141_" x="1075.2" y="711.1" fill="#041CA9" width="100.4" height="23.2"/>
			<rect id="XMLID_145_" x="1075.2" y="948.7" fill="#041CA9" width="100.4" height="23.2"/>
			<rect id="XMLID_144_" x="1075.2" y="988.3" fill="#041CA9" width="100.4" height="23.2"/>
			<rect id="XMLID_142_" x="1075.2" y="790.3" fill="#041CA9" width="100.4" height="23.2"/>
			<rect id="XMLID_143_" x="1075.2" y="829.9" fill="#041CA9" width="100.4" height="23.2"/>
			<rect id="XMLID_146_" x="1075.2" y="869.5" fill="#041CA9" width="100.4" height="23.2"/>
			<rect id="XMLID_148_" x="1075.2" y="1064.9" fill="#041CA9" width="100.4" height="23.2"/>
			<rect id="XMLID_147_" x="1075.2" y="1104.5" fill="#041CA9" width="100.4" height="23.2"/>
			<rect id="XMLID_149_" x="1075.2" y="1144.1" fill="#041CA9" width="100.4" height="23.2"/>
			
				<linearGradient id="XMLID_115_" gradientUnits="userSpaceOnUse" x1="4033.2908" y1="179.5943" x2="4091.2534" y2="179.5943" gradientTransform="matrix(-1 0 0 -1 5299.208 923.4873)">
				<stop  offset="0" style="stop-color:#FF9AF5"/>
				<stop  offset="1" style="stop-color:#5E86FF"/>
			</linearGradient>
			<path id="XMLID_229_" fill="url(#XMLID_115_)" d="M1243.6,728.1h25.2c1.8,0,3.3,1.5,3.3,3.3v25c0,1.8-1.5,3.3-3.3,3.3h-25.2
				c-1.8,0-3.3-1.5-3.3-3.3v-25C1240.3,729.6,1241.8,728.1,1243.6,728.1z"/>
			<path id="XMLID_228_" fill="#041CA9" d="M1202.1,728.1h25.2c1.8,0,3.3,1.5,3.3,3.3v25c0,1.8-1.5,3.3-3.3,3.3h-25.2
				c-1.8,0-3.3-1.5-3.3-3.3v-25C1198.8,729.6,1200.3,728.1,1202.1,728.1z"/>
			
				<linearGradient id="XMLID_116_" gradientUnits="userSpaceOnUse" x1="4033.2908" y1="138.6854" x2="4091.2534" y2="138.6854" gradientTransform="matrix(-1 0 0 -1 5299.208 923.4873)">
				<stop  offset="0" style="stop-color:#FF9AF5"/>
				<stop  offset="1" style="stop-color:#5E86FF"/>
			</linearGradient>
			<path id="XMLID_227_" fill="url(#XMLID_116_)" d="M1243.6,769h25.2c1.8,0,3.3,1.5,3.3,3.3v25c0,1.8-1.5,3.3-3.3,3.3h-25.2
				c-1.8,0-3.3-1.5-3.3-3.3v-25C1240.3,770.5,1241.8,769,1243.6,769z"/>
			
				<linearGradient id="XMLID_117_" gradientUnits="userSpaceOnUse" x1="4074.8455" y1="138.6854" x2="4132.8081" y2="138.6854" gradientTransform="matrix(-1 0 0 -1 5299.208 923.4873)">
				<stop  offset="0" style="stop-color:#FF9AF5"/>
				<stop  offset="1" style="stop-color:#5E86FF"/>
			</linearGradient>
			<path id="XMLID_225_" fill="url(#XMLID_117_)" d="M1202.1,769h25.2c1.8,0,3.3,1.5,3.3,3.3v25c0,1.8-1.5,3.3-3.3,3.3h-25.2
				c-1.8,0-3.3-1.5-3.3-3.3v-25C1198.8,770.5,1200.3,769,1202.1,769z"/>
			<path id="XMLID_224_" fill="#041CA9" d="M1243.6,809.9h25.2c1.8,0,3.3,1.5,3.3,3.3v25c0,1.8-1.5,3.3-3.3,3.3h-25.2
				c-1.8,0-3.3-1.5-3.3-3.3v-25C1240.3,811.4,1241.8,809.9,1243.6,809.9z"/>
			<path id="XMLID_223_" fill="#5E86FF" d="M1202.1,809.9h25.2c1.8,0,3.3,1.5,3.3,3.3v25c0,1.8-1.5,3.3-3.3,3.3h-25.2
				c-1.8,0-3.3-1.5-3.3-3.3v-25C1198.8,811.4,1200.3,809.9,1202.1,809.9z"/>
			<circle id="XMLID_230_" fill="#041CA9" cx="1233.2" cy="673.1" r="34.7"/>
			<circle id="XMLID_240_" fill="#0448DB" cx="1254.5" cy="673.1" r="9.8"/>
			<g id="XMLID_412_">
				<path id="XMLID_411_" fill="#5E86FF" d="M1248,879c-4.6,0-8.2-3.7-8.2-8.2c0-4.6,3.7-8.2,8.2-8.2c4.3,0,7.8,3.3,8.2,7.5
					c0,0.2,0,0.5,0,0.8c0,0.3,0,0.5,0,0.8C1255.8,875.8,1252.3,879,1248,879z"/>
				<path id="XMLID_365_" fill="#041CA9" d="M1256.2,871.6h-3.7V870h3.7c0,0.2,0,0.5,0,0.8C1256.2,871.1,1256.2,871.3,1256.2,871.6z
					"/>
			</g>
			<g id="XMLID_414_">
				<path id="XMLID_424_" fill="#5E86FF" d="M1248,912.8c-4.6,0-8.2-3.7-8.2-8.2c0-4.6,3.7-8.2,8.2-8.2c4.3,0,7.8,3.3,8.2,7.5
					c0,0.2,0,0.5,0,0.8c0,0.3,0,0.5,0,0.8C1255.8,909.5,1252.3,912.8,1248,912.8z"/>
				<path id="XMLID_416_" fill="#041CA9" d="M1256.2,905.3h-3.7v-1.5h3.7c0,0.2,0,0.5,0,0.8C1256.2,904.8,1256.2,905.1,1256.2,905.3
					z"/>
			</g>
			<g id="XMLID_431_">
				<path id="XMLID_443_" fill="#5E86FF" d="M1248,946.5c-4.6,0-8.2-3.7-8.2-8.2c0-4.6,3.7-8.2,8.2-8.2c4.3,0,7.8,3.3,8.2,7.5
					c0,0.2,0,0.5,0,0.8c0,0.3,0,0.5,0,0.8C1255.8,943.3,1252.3,946.5,1248,946.5z"/>
				<path id="XMLID_437_" fill="#041CA9" d="M1256.2,939.1h-3.7v-1.5h3.7c0,0.2,0,0.5,0,0.8C1256.2,938.5,1256.2,938.8,1256.2,939.1
					z"/>
			</g>
			<g id="XMLID_444_">
				<path id="XMLID_448_" fill="#5E86FF" d="M1248,980.3c-4.6,0-8.2-3.7-8.2-8.2c0-4.6,3.7-8.2,8.2-8.2c4.3,0,7.8,3.3,8.2,7.5
					c0,0.2,0,0.5,0,0.8c0,0.3,0,0.5,0,0.8C1255.8,977,1252.3,980.3,1248,980.3z"/>
				<path id="XMLID_445_" fill="#041CA9" d="M1256.2,972.8h-3.7v-1.5h3.7c0,0.2,0,0.5,0,0.8C1256.2,972.3,1256.2,972.6,1256.2,972.8
					z"/>
			</g>
			<g id="XMLID_464_">
				<path id="XMLID_468_" fill="#5E86FF" d="M1214.7,879c-4.6,0-8.2-3.7-8.2-8.2c0-4.6,3.7-8.2,8.2-8.2c4.3,0,7.8,3.3,8.2,7.5
					c0,0.2,0,0.5,0,0.8c0,0.3,0,0.5,0,0.8C1222.5,875.8,1219,879,1214.7,879z"/>
				<path id="XMLID_465_" fill="#041CA9" d="M1222.9,871.6h-3.7V870h3.7c0,0.2,0,0.5,0,0.8C1222.9,871.1,1222.9,871.3,1222.9,871.6z
					"/>
			</g>
			<g id="XMLID_459_">
				<path id="XMLID_463_" fill="#5E86FF" d="M1214.7,912.8c-4.6,0-8.2-3.7-8.2-8.2c0-4.6,3.7-8.2,8.2-8.2c4.3,0,7.8,3.3,8.2,7.5
					c0,0.2,0,0.5,0,0.8c0,0.3,0,0.5,0,0.8C1222.5,909.5,1219,912.8,1214.7,912.8z"/>
				<path id="XMLID_460_" fill="#041CA9" d="M1222.9,905.3h-3.7v-1.5h3.7c0,0.2,0,0.5,0,0.8C1222.9,904.8,1222.9,905.1,1222.9,905.3
					z"/>
			</g>
			<g id="XMLID_454_">
				<path id="XMLID_458_" fill="#5E86FF" d="M1214.7,946.5c-4.6,0-8.2-3.7-8.2-8.2c0-4.6,3.7-8.2,8.2-8.2c4.3,0,7.8,3.3,8.2,7.5
					c0,0.2,0,0.5,0,0.8c0,0.3,0,0.5,0,0.8C1222.5,943.3,1219,946.5,1214.7,946.5z"/>
				<path id="XMLID_455_" fill="#041CA9" d="M1222.9,939.1h-3.7v-1.5h3.7c0,0.2,0,0.5,0,0.8C1222.9,938.5,1222.9,938.8,1222.9,939.1
					z"/>
			</g>
			<g id="XMLID_449_">
				<path id="XMLID_453_" fill="#5E86FF" d="M1214.7,980.3c-4.6,0-8.2-3.7-8.2-8.2c0-4.6,3.7-8.2,8.2-8.2c4.3,0,7.8,3.3,8.2,7.5
					c0,0.2,0,0.5,0,0.8c0,0.3,0,0.5,0,0.8C1222.5,977,1219,980.3,1214.7,980.3z"/>
				<path id="XMLID_450_" fill="#041CA9" d="M1222.9,972.8h-3.7v-1.5h3.7c0,0.2,0,0.5,0,0.8C1222.9,972.3,1222.9,972.6,1222.9,972.8
					z"/>
			</g>
			<path id="XMLID_413_" fill="#041CA9" d="M1206.2,1222.9V1126c0-2.9,2.3-5.2,5.2-5.2h38.2c2.9,0,5.2,2.3,5.2,5.2v96.9
				c0,2.9-2.3,5.2-5.2,5.2h-38.2C1208.6,1228.1,1206.2,1225.8,1206.2,1222.9z"/>
			<path id="XMLID_469_" fill="#041CA9" d="M1242.2,1014v-15.9c0-1.9,1.6-3.5,3.5-3.5h4.9c1.9,0,3.5,1.6,3.5,3.5v15.9
				c0,1.9-1.6,3.5-3.5,3.5h-4.9C1243.7,1017.5,1242.2,1015.9,1242.2,1014z"/>
			
				<linearGradient id="XMLID_118_" gradientUnits="userSpaceOnUse" x1="2591.3389" y1="2605.3584" x2="2591.3389" y2="2617.261" gradientTransform="matrix(4.489659e-011 1 -1 4.489659e-011 3859.4146 -1555.2212)">
				<stop  offset="0" style="stop-color:#FF9AF5"/>
				<stop  offset="1" style="stop-color:#AC90FA"/>
			</linearGradient>
			<path id="XMLID_471_" fill="url(#XMLID_118_)" d="M1242.2,1044.1v-15.9c0-1.9,1.6-3.5,3.5-3.5h4.9c1.9,0,3.5,1.6,3.5,3.5v15.9
				c0,1.9-1.6,3.5-3.5,3.5h-4.9C1243.7,1047.6,1242.2,1046,1242.2,1044.1z"/>
			<path id="XMLID_472_" fill="#5E86FF" d="M1242.2,1074.1v-15.9c0-1.9,1.6-3.5,3.5-3.5h4.9c1.9,0,3.5,1.6,3.5,3.5v15.9
				c0,1.9-1.6,3.5-3.5,3.5h-4.9C1243.7,1077.6,1242.2,1076.1,1242.2,1074.1z"/>
			<path id="XMLID_473_" fill="#5E86FF" d="M1242.2,1104.2v-15.9c0-1.9,1.6-3.5,3.5-3.5h4.9c1.9,0,3.5,1.6,3.5,3.5v15.9
				c0,1.9-1.6,3.5-3.5,3.5h-4.9C1243.7,1107.7,1242.2,1106.1,1242.2,1104.2z"/>
			
				<linearGradient id="XMLID_120_" gradientUnits="userSpaceOnUse" x1="2561.2698" y1="2622.8694" x2="2561.2698" y2="2634.772" gradientTransform="matrix(4.489659e-011 1 -1 4.489659e-011 3859.4146 -1555.2212)">
				<stop  offset="0" style="stop-color:#FF9AF5"/>
				<stop  offset="1" style="stop-color:#AC90FA"/>
			</linearGradient>
			<path id="XMLID_477_" fill="url(#XMLID_120_)" d="M1224.6,1014v-15.9c0-1.9,1.6-3.5,3.5-3.5h4.9c1.9,0,3.5,1.6,3.5,3.5v15.9
				c0,1.9-1.6,3.5-3.5,3.5h-4.9C1226.2,1017.5,1224.6,1015.9,1224.6,1014z"/>
			<path id="XMLID_476_" fill="#5E86FF" d="M1224.6,1044.1v-15.9c0-1.9,1.6-3.5,3.5-3.5h4.9c1.9,0,3.5,1.6,3.5,3.5v15.9
				c0,1.9-1.6,3.5-3.5,3.5h-4.9C1226.2,1047.6,1224.6,1046,1224.6,1044.1z"/>
			<path id="XMLID_475_" fill="#041CA9" d="M1224.6,1074.1v-15.9c0-1.9,1.6-3.5,3.5-3.5h4.9c1.9,0,3.5,1.6,3.5,3.5v15.9
				c0,1.9-1.6,3.5-3.5,3.5h-4.9C1226.2,1077.6,1224.6,1076.1,1224.6,1074.1z"/>
			
				<linearGradient id="XMLID_121_" gradientUnits="userSpaceOnUse" x1="2651.4768" y1="2622.8694" x2="2651.4768" y2="2634.772" gradientTransform="matrix(4.489659e-011 1 -1 4.489659e-011 3859.4146 -1555.2212)">
				<stop  offset="0" style="stop-color:#FF9AF5"/>
				<stop  offset="1" style="stop-color:#AC90FA"/>
			</linearGradient>
			<path id="XMLID_474_" fill="url(#XMLID_121_)" d="M1224.6,1104.2v-15.9c0-1.9,1.6-3.5,3.5-3.5h4.9c1.9,0,3.5,1.6,3.5,3.5v15.9
				c0,1.9-1.6,3.5-3.5,3.5h-4.9C1226.2,1107.7,1224.6,1106.1,1224.6,1104.2z"/>
			<path id="XMLID_481_" fill="#5E86FF" d="M1207.1,1014v-15.9c0-1.9,1.6-3.5,3.5-3.5h4.9c1.9,0,3.5,1.6,3.5,3.5v15.9
				c0,1.9-1.6,3.5-3.5,3.5h-4.9C1208.7,1017.5,1207.1,1015.9,1207.1,1014z"/>
			<path id="XMLID_480_" fill="#041CA9" d="M1207.1,1044.1v-15.9c0-1.9,1.6-3.5,3.5-3.5h4.9c1.9,0,3.5,1.6,3.5,3.5v15.9
				c0,1.9-1.6,3.5-3.5,3.5h-4.9C1208.7,1047.6,1207.1,1046,1207.1,1044.1z"/>
			
				<linearGradient id="XMLID_122_" gradientUnits="userSpaceOnUse" x1="2621.4077" y1="2640.3804" x2="2621.4077" y2="2652.283" gradientTransform="matrix(4.489659e-011 1 -1 4.489659e-011 3859.4146 -1555.2212)">
				<stop  offset="0" style="stop-color:#FF9AF5"/>
				<stop  offset="1" style="stop-color:#AC90FA"/>
			</linearGradient>
			<path id="XMLID_479_" fill="url(#XMLID_122_)" d="M1207.1,1074.1v-15.9c0-1.9,1.6-3.5,3.5-3.5h4.9c1.9,0,3.5,1.6,3.5,3.5v15.9
				c0,1.9-1.6,3.5-3.5,3.5h-4.9C1208.7,1077.6,1207.1,1076.1,1207.1,1074.1z"/>
			<path id="XMLID_478_" fill="#5E86FF" d="M1207.1,1104.2v-15.9c0-1.9,1.6-3.5,3.5-3.5h4.9c1.9,0,3.5,1.6,3.5,3.5v15.9
				c0,1.9-1.6,3.5-3.5,3.5h-4.9C1208.7,1107.7,1207.1,1106.1,1207.1,1104.2z"/>
		</g>
		<g id="XMLID_763_">
			<path id="XMLID_231_" fill="#0448DB" d="M932.1,1264.1H144.6c-7.8,0-14.1-6.3-14.1-14.1V799.4c0-7.8,6.3-14.1,14.1-14.1h787.6
				c7.8,0,14.1,6.3,14.1,14.1V1250C946.2,1257.8,939.9,1264.1,932.1,1264.1z"/>
			<g id="XMLID_675_">
				<path id="XMLID_868_" fill="#041CA9" d="M455,1018.2c-1.3-6.5-3-12.8-5.1-18.9c-1.5-4.3-3.2-8.6-5.1-12.7
					c-0.5-1.1-1-2.1-1.5-3.1c-2.9-5.9-6.1-11.5-9.8-16.9c-3.2-4.8-6.7-9.3-10.5-13.6c-0.5-0.6-1.1-1.3-1.7-1.9
					c-3.8-4.2-7.8-8.2-12.1-11.9c-4.3-3.8-8.9-7.3-13.6-10.5c-2.7-1.8-5.5-3.6-8.3-5.2c-2.8-1.6-5.7-3.2-8.6-4.6
					c-5.1-2.5-10.4-4.7-15.9-6.6c-6.1-2.1-12.4-3.8-18.9-5.1c-5.6-1.1-11.3-1.8-17.1-2.2c-3.2-0.2-6.5-0.3-9.8-0.3s-6.6,0.1-9.8,0.3
					c-5.8,0.4-11.5,1.1-17.1,2.2c-6.5,1.3-12.8,3-18.9,5.1c-5.5,1.9-10.8,4.1-15.9,6.6c-2.9,1.4-5.8,3-8.6,4.6
					c-2.8,1.6-5.6,3.4-8.3,5.2c-4.8,3.2-9.3,6.7-13.6,10.5c-4.9,4.3-9.5,8.9-13.8,13.8c-3.8,4.3-7.3,8.9-10.5,13.6
					c-3.6,5.4-6.9,11-9.8,16.9c-2.5,5.1-4.7,10.4-6.6,15.9c-2.1,6.1-3.8,12.4-5.1,18.9c-1.1,5.6-1.8,11.3-2.2,17.1
					c-0.2,3.2-0.3,6.5-0.3,9.8c0,3.3,0.1,6.5,0.3,9.8c0.4,5.8,1.1,11.5,2.2,17.1c1.3,6.5,3,12.8,5.1,18.9c1.5,4.3,3.2,8.6,5.1,12.7
					c0.5,1.1,1,2.1,1.5,3.1c2.9,5.9,6.1,11.5,9.8,16.9c3.2,4.8,6.7,9.3,10.5,13.6c0.5,0.7,1.1,1.3,1.7,1.9
					c3.8,4.2,7.8,8.2,12.1,11.9c4.3,3.8,8.9,7.3,13.6,10.5c2.7,1.8,5.5,3.6,8.3,5.2c2.8,1.6,5.7,3.2,8.6,4.6
					c5.1,2.5,10.4,4.7,15.9,6.6c6.1,2.1,12.4,3.8,18.9,5c5.6,1.1,11.3,1.8,17.1,2.2c3.2,0.2,6.5,0.3,9.8,0.3s6.6-0.1,9.8-0.3
					c5.8-0.4,11.5-1.1,17.1-2.2c6.5-1.2,12.8-2.9,18.9-5c5.5-1.9,10.8-4.1,15.9-6.6c2.9-1.4,5.8-3,8.6-4.6c2.8-1.6,5.6-3.4,8.3-5.2
					c4.8-3.2,9.3-6.7,13.6-10.5c4.9-4.3,9.5-8.9,13.8-13.8c3.8-4.3,7.3-8.9,10.5-13.6c3.6-5.4,6.9-11,9.8-16.9
					c2.5-5.1,4.7-10.4,6.6-15.9c2.1-6.1,3.8-12.4,5.1-18.9c1.1-5.6,1.8-11.3,2.2-17.1c0.2-3.2,0.3-6.5,0.3-9.8s-0.1-6.6-0.3-9.8
					C456.9,1029.5,456.1,1023.8,455,1018.2z"/>
				<path id="XMLID_869_" fill="#041CA9" d="M899.8,1035.3c-0.4-5.8-1.1-11.5-2.2-17.1c-1.3-6.5-3-12.8-5.1-18.9
					c-1.5-4.3-3.2-8.6-5.1-12.7c-0.5-1.1-1-2.1-1.5-3.1c-2.9-5.9-6.1-11.5-9.8-16.9c-3.2-4.8-6.7-9.3-10.5-13.6
					c-0.5-0.6-1.1-1.3-1.7-1.9c-3.8-4.2-7.8-8.2-12.1-11.9c-4.3-3.8-8.9-7.3-13.6-10.5c-2.7-1.8-5.5-3.6-8.3-5.2
					c-2.8-1.6-5.7-3.2-8.6-4.6c-5.1-2.5-10.4-4.7-15.9-6.6c-6.1-2.1-12.4-3.8-18.9-5.1c-5.6-1.1-11.3-1.8-17.1-2.2
					c-3.2-0.2-6.5-0.3-9.8-0.3s-6.6,0.1-9.8,0.3c-5.8,0.4-11.5,1.1-17.1,2.2c-6.5,1.3-12.8,3-18.9,5.1c-5.5,1.9-10.8,4.1-15.9,6.6
					c-2.9,1.4-5.8,3-8.6,4.6c-2.8,1.6-5.6,3.4-8.3,5.2c-4.8,3.2-9.3,6.7-13.6,10.5c-4.9,4.3-9.5,8.9-13.8,13.8
					c-3.8,4.3-7.3,8.9-10.5,13.6c-3.6,5.4-6.9,11-9.8,16.9c-2.5,5.1-4.7,10.4-6.6,15.9c-2.1,6.1-3.8,12.4-5.1,18.9
					c-1.1,5.6-1.8,11.3-2.2,17.1c-0.2,3.2-0.3,6.5-0.3,9.8c0,3.3,0.1,6.5,0.3,9.8c0.4,5.8,1.1,11.5,2.2,17.1
					c1.3,6.5,3,12.8,5.1,18.9c1.5,4.3,3.2,8.6,5.1,12.7c0.5,1.1,1,2.1,1.5,3.1c2.9,5.9,6.1,11.5,9.8,16.9c3.2,4.8,6.7,9.3,10.5,13.6
					c0.5,0.7,1.1,1.3,1.7,1.9c3.8,4.2,7.8,8.2,12.1,11.9c4.3,3.8,8.9,7.3,13.6,10.5c2.7,1.8,5.5,3.6,8.3,5.2
					c2.8,1.6,5.7,3.2,8.6,4.6c5.1,2.5,10.4,4.7,15.9,6.6c6.1,2.1,12.4,3.8,18.9,5c5.6,1.1,11.3,1.8,17.1,2.2
					c3.2,0.2,6.5,0.3,9.8,0.3s6.6-0.1,9.8-0.3c5.8-0.4,11.5-1.1,17.1-2.2c6.5-1.2,12.8-2.9,18.9-5c5.5-1.9,10.8-4.1,15.9-6.6
					c2.9-1.4,5.8-3,8.6-4.6c2.8-1.6,5.6-3.4,8.3-5.2c4.8-3.2,9.3-6.7,13.6-10.5c4.9-4.3,9.5-8.9,13.8-13.8
					c3.8-4.3,7.3-8.9,10.5-13.6c3.6-5.4,6.9-11,9.8-16.9c2.5-5.1,4.7-10.4,6.6-15.9c2.1-6.1,3.8-12.4,5.1-18.9
					c1.1-5.6,1.8-11.3,2.2-17.1c0.2-3.2,0.3-6.5,0.3-9.8S900,1038.5,899.8,1035.3z"/>
			</g>
			<g id="XMLID_200_">
				<g id="XMLID_199_">
					<circle id="XMLID_198_" fill="#5E86FF" cx="212.1" cy="1214.6" r="24.9"/>
					<circle id="XMLID_197_" fill="#0448DB" cx="212.1" cy="1199.3" r="7"/>
				</g>
				<g id="XMLID_201_">
					<circle id="XMLID_236_" fill="#5E86FF" cx="282.1" cy="1214.6" r="24.9"/>
					<circle id="XMLID_235_" fill="#0448DB" cx="282.1" cy="1199.3" r="7"/>
				</g>
				<g id="XMLID_669_">
					<circle id="XMLID_673_" fill="#5E86FF" cx="352.1" cy="1214.6" r="24.9"/>
					<circle id="XMLID_671_" fill="#0448DB" cx="352.1" cy="1199.3" r="7"/>
				</g>
				<g id="XMLID_676_">
					<circle id="XMLID_678_" fill="#5E86FF" cx="422.1" cy="1214.6" r="24.9"/>
					<circle id="XMLID_677_" fill="#0448DB" cx="422.1" cy="1199.3" r="7"/>
				</g>
			</g>
			<g id="XMLID_531_">
				<g id="XMLID_714_">
					<circle id="XMLID_716_" fill="#5E86FF" cx="654.6" cy="1214.6" r="24.9"/>
					<circle id="XMLID_715_" fill="#0448DB" cx="654.6" cy="1199.3" r="7"/>
				</g>
				<g id="XMLID_709_">
					<circle id="XMLID_711_" fill="#5E86FF" cx="724.6" cy="1214.6" r="24.9"/>
					<circle id="XMLID_710_" fill="#0448DB" cx="724.6" cy="1199.3" r="7"/>
				</g>
				<g id="XMLID_681_">
					<circle id="XMLID_706_" fill="#5E86FF" cx="794.6" cy="1214.6" r="24.9"/>
					<circle id="XMLID_705_" fill="#0448DB" cx="794.6" cy="1199.3" r="7"/>
				</g>
				<g id="XMLID_670_">
					<circle id="XMLID_674_" fill="#5E86FF" cx="864.6" cy="1214.6" r="24.9"/>
					<circle id="XMLID_672_" fill="#0448DB" cx="864.6" cy="1199.3" r="7"/>
				</g>
			</g>
			<g id="XMLID_373_">
				<g id="XMLID_150_">
					<g id="XMLID_124_">
						<path id="XMLID_604_" fill="#0448DB" d="M176.9,1039.9c-0.2-3.2-0.3-6.5-0.3-9.8c0-3.3,0.1-6.6,0.3-9.8
							c5.2,0.2,9.5,4.5,9.5,9.8C186.4,1035.4,182.2,1039.7,176.9,1039.9z"/>
						<path id="XMLID_605_" fill="#0448DB" d="M184.2,1075.8c-2.1-6.1-3.8-12.4-5.1-18.9c5.1-1.2,10.3,1.9,11.7,7
							C192.2,1069,189.3,1074.3,184.2,1075.8z"/>
						<path id="XMLID_606_" fill="#0448DB" d="M179.2,1003.3c1.3-6.5,3-12.8,5.1-18.9c5.1,1.5,8,6.8,6.6,11.9
							C189.5,1001.4,184.3,1004.5,179.2,1003.3z"/>
						<path id="XMLID_607_" fill="#0448DB" d="M203.9,1095.4c2.7,4.6,1.2,10.4-3.3,13.2c-3.6-5.4-6.9-11-9.8-16.9
							C195.5,1089.2,201.3,1090.8,203.9,1095.4z"/>
						<path id="XMLID_608_" fill="#0448DB" d="M203.9,964.7c-2.7,4.6-8.5,6.2-13.1,3.7c2.9-5.9,6.2-11.6,9.8-16.9
							C205.1,954.3,206.6,960.2,203.9,964.7z"/>
						<path id="XMLID_609_" fill="#0448DB" d="M224.7,1122.5c3.7,3.7,3.8,9.8,0.2,13.6c-4.3-3.7-8.3-7.7-12.1-11.9
							c-0.6-0.6-1.1-1.3-1.7-1.9C214.9,1118.7,221,1118.8,224.7,1122.5z"/>
						<path id="XMLID_610_" fill="#0448DB" d="M224.9,924.1c3.6,3.8,3.5,9.9-0.2,13.6c-3.7,3.7-9.8,3.8-13.6,0.2
							C215.4,933,220,928.4,224.9,924.1z"/>
						<path id="XMLID_611_" fill="#0448DB" d="M255.5,1156.4c-2.9-1.4-5.8-3-8.6-4.6c-2.8-1.6-5.6-3.4-8.3-5.2
							c2.8-4.5,8.6-6,13.2-3.3C256.3,1145.9,258,1151.7,255.5,1156.4z"/>
						<path id="XMLID_612_" fill="#0448DB" d="M255.5,903.8c2.5,4.6,0.9,10.4-3.7,13.1c-4.6,2.7-10.4,1.2-13.2-3.3
							c2.7-1.8,5.5-3.6,8.3-5.2C249.7,906.8,252.5,905.2,255.5,903.8z"/>
						<path id="XMLID_613_" fill="#0448DB" d="M290.3,1168c-6.5-1.2-12.8-2.9-18.9-5c1.5-5.1,6.8-8,11.9-6.6
							C288.4,1157.7,291.5,1162.9,290.3,1168z"/>
						<path id="XMLID_614_" fill="#0448DB" d="M290.3,892.2c1.2,5.1-1.9,10.3-7,11.7c-5.1,1.4-10.4-1.6-11.9-6.6
							C277.5,895.1,283.8,893.4,290.3,892.2z"/>
						<path id="XMLID_620_" fill="#0448DB" d="M326.9,1170.2c-3.2,0.2-6.5,0.3-9.8,0.3c-3.3,0-6.6-0.1-9.8-0.3
							c0.2-5.2,4.5-9.5,9.8-9.5S326.7,1165,326.9,1170.2z"/>
						<path id="XMLID_623_" fill="#0448DB" d="M317.1,889.6c3.3,0,6.6,0.1,9.8,0.3c-0.2,5.2-4.5,9.5-9.8,9.5s-9.6-4.2-9.8-9.5
							C310.6,889.7,313.8,889.6,317.1,889.6z"/>
						<path id="XMLID_624_" fill="#0448DB" d="M362.8,1163c-6.1,2.1-12.4,3.8-18.9,5c-1.2-5.1,1.9-10.3,7-11.7
							C356.1,1155,361.3,1157.9,362.8,1163z"/>
						<path id="XMLID_625_" fill="#0448DB" d="M343.9,892.2c6.5,1.3,12.8,3,18.9,5.1c-1.5,5.1-6.8,8-11.9,6.6
							C345.8,902.5,342.7,897.3,343.9,892.2z"/>
						<path id="XMLID_626_" fill="#0448DB" d="M395.7,1146.6c-2.7,1.8-5.5,3.6-8.3,5.2c-2.8,1.6-5.7,3.2-8.6,4.6
							c-2.5-4.6-0.9-10.4,3.7-13.1C387,1140.6,392.9,1142.1,395.7,1146.6z"/>
						<path id="XMLID_627_" fill="#0448DB" d="M387.4,908.4c2.8,1.6,5.6,3.4,8.3,5.2c-2.8,4.5-8.6,6-13.2,3.3
							c-4.6-2.7-6.2-8.5-3.7-13.1C381.7,905.2,384.5,906.8,387.4,908.4z"/>
						<path id="XMLID_628_" fill="#0448DB" d="M423.1,1122.3c-4.3,4.9-8.9,9.5-13.8,13.8c-3.6-3.8-3.5-9.9,0.2-13.6
							C413.3,1118.8,419.3,1118.7,423.1,1122.3z"/>
						<path id="XMLID_629_" fill="#0448DB" d="M409.5,937.7c-3.7-3.7-3.8-9.8-0.2-13.6c4.3,3.7,8.3,7.7,12.1,11.9
							c0.6,0.6,1.1,1.3,1.7,1.9C419.3,941.5,413.3,941.4,409.5,937.7z"/>
						<path id="XMLID_630_" fill="#0448DB" d="M443.4,1091.7c-2.9,5.9-6.1,11.5-9.8,16.9c-4.5-2.8-6-8.6-3.3-13.2
							C432.9,1090.8,438.7,1089.2,443.4,1091.7z"/>
						<path id="XMLID_631_" fill="#0448DB" d="M430.3,964.7c-2.7-4.6-1.2-10.4,3.3-13.2c3.6,5.4,6.9,11,9.8,16.9
							C438.7,971,432.9,969.3,430.3,964.7z"/>
						<path id="XMLID_634_" fill="#0448DB" d="M455,1056.9c-1.3,6.5-3,12.8-5.1,18.9c-5.1-1.5-8-6.8-6.6-11.9
							C444.7,1058.8,449.9,1055.7,455,1056.9z"/>
						<path id="XMLID_637_" fill="#0448DB" d="M450,984.4c2.1,6.1,3.8,12.4,5.1,18.9c-5.1,1.2-10.3-1.9-11.7-7
							C442,991.1,444.9,985.9,450,984.4z"/>
						<path id="XMLID_638_" fill="#0448DB" d="M457.6,1030.1c0,3.3-0.1,6.5-0.3,9.8c-5.3-0.2-9.5-4.5-9.5-9.8c0-5.3,4.2-9.6,9.5-9.8
							C457.5,1023.5,457.6,1026.8,457.6,1030.1z"/>
						<linearGradient id="XMLID_123_" gradientUnits="userSpaceOnUse" x1="317.1087" y1="901.3514" x2="317.1087" y2="1192.5039">
							<stop  offset="0" style="stop-color:#FF9AF5"/>
							<stop  offset="1" style="stop-color:#5E86FF"/>
						</linearGradient>
						<path id="XMLID_541_" fill="url(#XMLID_123_)" d="M457.3,1039.9c-0.4,5.8-1.1,11.5-2.2,17.1c-5.1-1.2-10.3,1.9-11.7,7
							c-1.4,5.1,1.6,10.4,6.6,11.9c-1.9,5.5-4.1,10.8-6.6,15.9c-4.6-2.5-10.5-0.9-13.1,3.7c-2.7,4.6-1.2,10.4,3.3,13.2
							c-3.2,4.8-6.7,9.3-10.5,13.6c-3.8-3.6-9.9-3.5-13.6,0.2c-3.7,3.7-3.8,9.8-0.2,13.6c-4.3,3.8-8.9,7.3-13.6,10.5
							c-2.8-4.5-8.6-6-13.2-3.3c-4.6,2.7-6.2,8.5-3.7,13.1c-5.1,2.5-10.4,4.7-15.9,6.6c-1.5-5.1-6.8-8-11.9-6.6
							c-5.1,1.4-8.2,6.6-7,11.7c-5.6,1.1-11.3,1.8-17.1,2.2c-0.2-5.2-4.5-9.5-9.8-9.5s-9.6,4.2-9.8,9.5c-5.8-0.4-11.5-1.1-17.1-2.2
							c1.2-5.1-1.9-10.3-7-11.7c-5.1-1.4-10.4,1.6-11.9,6.6c-5.5-1.9-10.8-4.1-15.9-6.6c2.5-4.6,0.9-10.4-3.7-13.1
							c-4.6-2.7-10.4-1.2-13.2,3.3c-4.8-3.2-9.3-6.7-13.6-10.5c3.6-3.8,3.5-9.9-0.2-13.6c-3.7-3.7-9.8-3.8-13.6-0.2
							c-3.8-4.3-7.3-8.9-10.5-13.6c4.5-2.8,6-8.6,3.3-13.2c-2.7-4.6-8.5-6.2-13.1-3.7c-0.5-1-1-2.1-1.5-3.1
							c-1.9-4.1-3.6-8.4-5.1-12.7c5-1.5,8-6.8,6.6-11.9c-1.4-5.1-6.6-8.2-11.7-7c-1.1-5.6-1.8-11.3-2.2-17.1
							c5.3-0.2,9.5-4.5,9.5-9.8c0-5.3-4.2-9.6-9.5-9.8c0.4-5.8,1.1-11.5,2.2-17.1c5.1,1.2,10.3-1.9,11.7-7
							c1.4-5.1-1.6-10.4-6.6-11.9c1.9-5.5,4.1-10.8,6.6-15.9c4.6,2.5,10.5,0.9,13.1-3.7c2.7-4.6,1.2-10.4-3.3-13.2
							c3.2-4.8,6.7-9.3,10.5-13.6c3.8,3.6,9.9,3.5,13.6-0.2c3.7-3.7,3.8-9.8,0.2-13.6c4.3-3.8,8.9-7.2,13.6-10.5
							c2.8,4.5,8.6,6,13.2,3.3c4.6-2.7,6.2-8.5,3.7-13.1c5.1-2.5,10.4-4.7,15.9-6.6c1.5,5.1,6.8,8,11.9,6.6c5.1-1.4,8.2-6.6,7-11.7
							c5.6-1.1,11.3-1.8,17.1-2.2c0.2,5.2,4.5,9.5,9.8,9.5s9.6-4.2,9.8-9.5c5.8,0.4,11.5,1.1,17.1,2.2c-1.2,5.1,1.9,10.3,7,11.7
							c5.1,1.4,10.4-1.6,11.9-6.6c5.5,1.9,10.8,4.1,15.9,6.6c-2.5,4.6-0.9,10.4,3.7,13.1c4.6,2.7,10.4,1.2,13.2-3.3
							c4.8,3.2,9.3,6.7,13.6,10.5c-3.6,3.8-3.5,9.9,0.2,13.6c3.7,3.7,9.8,3.8,13.6,0.2c3.8,4.3,7.3,8.9,10.5,13.6
							c-4.5,2.8-6,8.6-3.3,13.2c2.7,4.6,8.5,6.2,13.1,3.7c0.5,1,1,2.1,1.5,3.1c1.9,4.1,3.6,8.4,5.1,12.7c-5,1.5-8,6.8-6.6,11.9
							c1.4,5.1,6.6,8.2,11.7,7c1.1,5.6,1.8,11.3,2.2,17.1c-5.3,0.2-9.5,4.5-9.5,9.8C447.8,1035.4,452,1039.7,457.3,1039.9z"/>
					</g>
					<g id="XMLID_233_">
						<path id="XMLID_507_" fill="#5E86FF" d="M437.4,1030.1c0,44.5-24.2,83.4-60.1,104.2c-17.7,10.2-38.2,16.1-60.2,16.1
							s-42.5-5.9-60.2-16.1c-10.9-6.3-20.8-14.3-29.2-23.6c-8.2-9-15-19.3-20.1-30.5c-7-15.2-10.9-32.2-10.9-50.1
							c0-44.5,24.2-83.4,60.1-104.2c17.7-10.2,38.2-16.1,60.2-16.1s42.5,5.9,60.2,16.1c10.9,6.3,20.8,14.3,29.2,23.6
							c8.2,9,15,19.3,20.1,30.5C433.5,995.3,437.4,1012.2,437.4,1030.1z"/>
						<linearGradient id="XMLID_151_" gradientUnits="userSpaceOnUse" x1="317.1088" y1="1202.1559" x2="317.1088" y2="1027.2212">
							<stop  offset="0" style="stop-color:#4568FF"/>
							<stop  offset="1" style="stop-color:#FFFFFF"/>
						</linearGradient>
						<path id="XMLID_499_" fill="url(#XMLID_151_)" d="M377.3,1134.3c-17.7,10.2-38.2,16.1-60.2,16.1s-42.5-5.9-60.2-16.1
							l60.2-104.2L377.3,1134.3z"/>
						<linearGradient id="XMLID_152_" gradientUnits="userSpaceOnUse" x1="317.1088" y1="847.3553" x2="317.1088" y2="1005.0056">
							<stop  offset="0" style="stop-color:#4568FF"/>
							<stop  offset="1" style="stop-color:#FFFFFF"/>
						</linearGradient>
						<path id="XMLID_498_" fill="url(#XMLID_152_)" d="M377.3,925.9l-60.2,104.2L257,925.9c17.7-10.2,38.2-16.1,60.2-16.1
							S359.6,915.7,377.3,925.9z"/>
						<linearGradient id="XMLID_153_" gradientUnits="userSpaceOnUse" x1="119.1083" y1="1198.4165" x2="266.6364" y2="1050.8884">
							<stop  offset="0" style="stop-color:#4568FF"/>
							<stop  offset="1" style="stop-color:#FFFFFF"/>
						</linearGradient>
						<path id="XMLID_497_" fill="url(#XMLID_153_)" d="M317.1,1030.1l-89.3,80.6c-8.2-9-15-19.3-20.1-30.5L317.1,1030.1z"/>
						<linearGradient id="XMLID_154_" gradientUnits="userSpaceOnUse" x1="533.0525" y1="843.8187" x2="304.1916" y2="1072.6796">
							<stop  offset="0" style="stop-color:#4568FF"/>
							<stop  offset="1" style="stop-color:#FFFFFF"/>
						</linearGradient>
						<path id="XMLID_496_" fill="url(#XMLID_154_)" d="M426.5,980l-109.4,50.1l89.3-80.6C414.6,958.5,421.4,968.8,426.5,980z"/>
					</g>
				</g>
				<g id="XMLID_192_">
					<g id="XMLID_536_">
						<path id="XMLID_643_" fill="#0448DB" d="M619.4,1039.9c-0.2-3.2-0.3-6.5-0.3-9.8c0-3.3,0.1-6.6,0.3-9.8
							c5.2,0.2,9.5,4.5,9.5,9.8C628.9,1035.4,624.7,1039.7,619.4,1039.9z"/>
						<path id="XMLID_640_" fill="#0448DB" d="M626.7,1075.8c-2.1-6.1-3.8-12.4-5.1-18.9c5.1-1.2,10.3,1.9,11.7,7
							C634.7,1069,631.8,1074.3,626.7,1075.8z"/>
						<path id="XMLID_602_" fill="#0448DB" d="M621.7,1003.3c1.3-6.5,3-12.8,5.1-18.9c5.1,1.5,8,6.8,6.6,11.9
							C632,1001.4,626.8,1004.5,621.7,1003.3z"/>
						<path id="XMLID_599_" fill="#0448DB" d="M646.4,1095.4c2.7,4.6,1.2,10.4-3.3,13.2c-3.6-5.4-6.9-11-9.8-16.9
							C637.9,1089.2,643.8,1090.8,646.4,1095.4z"/>
						<path id="XMLID_596_" fill="#0448DB" d="M646.4,964.7c-2.7,4.6-8.5,6.2-13.1,3.7c2.9-5.9,6.2-11.6,9.8-16.9
							C647.6,954.3,649.1,960.2,646.4,964.7z"/>
						<path id="XMLID_593_" fill="#0448DB" d="M667.2,1122.5c3.7,3.7,3.8,9.8,0.2,13.6c-4.3-3.7-8.3-7.7-12.1-11.9
							c-0.6-0.6-1.1-1.3-1.7-1.9C657.4,1118.7,663.4,1118.8,667.2,1122.5z"/>
						<path id="XMLID_590_" fill="#0448DB" d="M667.4,924.1c3.6,3.8,3.5,9.9-0.2,13.6c-3.7,3.7-9.8,3.8-13.6,0.2
							C657.9,933,662.5,928.4,667.4,924.1z"/>
						<path id="XMLID_587_" fill="#0448DB" d="M698,1156.4c-2.9-1.4-5.8-3-8.6-4.6c-2.8-1.6-5.6-3.4-8.3-5.2c2.8-4.5,8.6-6,13.2-3.3
							C698.8,1145.9,700.5,1151.7,698,1156.4z"/>
						<path id="XMLID_584_" fill="#0448DB" d="M698,903.8c2.5,4.6,0.9,10.4-3.7,13.1c-4.6,2.7-10.4,1.2-13.2-3.3
							c2.7-1.8,5.5-3.6,8.3-5.2C692.2,906.8,695,905.2,698,903.8z"/>
						<path id="XMLID_581_" fill="#0448DB" d="M732.8,1168c-6.5-1.2-12.8-2.9-18.9-5c1.5-5.1,6.8-8,11.9-6.6
							C730.9,1157.7,734,1162.9,732.8,1168z"/>
						<path id="XMLID_578_" fill="#0448DB" d="M732.8,892.2c1.2,5.1-1.9,10.3-7,11.7c-5.1,1.4-10.4-1.6-11.9-6.6
							C720,895.1,726.3,893.4,732.8,892.2z"/>
						<path id="XMLID_575_" fill="#0448DB" d="M769.4,1170.2c-3.2,0.2-6.5,0.3-9.8,0.3c-3.3,0-6.6-0.1-9.8-0.3
							c0.2-5.2,4.5-9.5,9.8-9.5S769.2,1165,769.4,1170.2z"/>
						<path id="XMLID_572_" fill="#0448DB" d="M759.6,889.6c3.3,0,6.6,0.1,9.8,0.3c-0.2,5.2-4.5,9.5-9.8,9.5s-9.6-4.2-9.8-9.5
							C753,889.7,756.3,889.6,759.6,889.6z"/>
						<path id="XMLID_569_" fill="#0448DB" d="M805.3,1163c-6.1,2.1-12.4,3.8-18.9,5c-1.2-5.1,1.9-10.3,7-11.7
							C798.5,1155,803.8,1157.9,805.3,1163z"/>
						<path id="XMLID_566_" fill="#0448DB" d="M786.4,892.2c6.5,1.3,12.8,3,18.9,5.1c-1.5,5.1-6.8,8-11.9,6.6
							C788.3,902.5,785.2,897.3,786.4,892.2z"/>
						<path id="XMLID_563_" fill="#0448DB" d="M838.1,1146.6c-2.7,1.8-5.5,3.6-8.3,5.2c-2.8,1.6-5.7,3.2-8.6,4.6
							c-2.5-4.6-0.9-10.4,3.7-13.1C829.5,1140.6,835.4,1142.1,838.1,1146.6z"/>
						<path id="XMLID_560_" fill="#0448DB" d="M829.8,908.4c2.8,1.6,5.6,3.4,8.3,5.2c-2.8,4.5-8.6,6-13.2,3.3
							c-4.6-2.7-6.2-8.5-3.7-13.1C824.1,905.2,827,906.8,829.8,908.4z"/>
						<path id="XMLID_557_" fill="#0448DB" d="M865.6,1122.3c-4.3,4.9-8.9,9.5-13.8,13.8c-3.6-3.8-3.5-9.9,0.2-13.6
							C855.7,1118.8,861.8,1118.7,865.6,1122.3z"/>
						<path id="XMLID_554_" fill="#0448DB" d="M852,937.7c-3.7-3.7-3.8-9.8-0.2-13.6c4.3,3.7,8.3,7.7,12.1,11.9
							c0.6,0.6,1.1,1.3,1.7,1.9C861.7,941.5,855.7,941.4,852,937.7z"/>
						<path id="XMLID_551_" fill="#0448DB" d="M885.9,1091.7c-2.9,5.9-6.1,11.5-9.8,16.9c-4.5-2.8-6-8.6-3.3-13.2
							C875.4,1090.8,881.2,1089.2,885.9,1091.7z"/>
						<path id="XMLID_548_" fill="#0448DB" d="M872.8,964.7c-2.7-4.6-1.2-10.4,3.3-13.2c3.6,5.4,6.9,11,9.8,16.9
							C881.2,971,875.4,969.3,872.8,964.7z"/>
						<path id="XMLID_545_" fill="#0448DB" d="M897.5,1056.9c-1.3,6.5-3,12.8-5.1,18.9c-5.1-1.5-8-6.8-6.6-11.9
							C887.2,1058.8,892.4,1055.7,897.5,1056.9z"/>
						<path id="XMLID_542_" fill="#0448DB" d="M892.5,984.4c2.1,6.1,3.8,12.4,5.1,18.9c-5.1,1.2-10.3-1.9-11.7-7
							C884.4,991.1,887.4,985.9,892.5,984.4z"/>
						<path id="XMLID_538_" fill="#0448DB" d="M900.1,1030.1c0,3.3-0.1,6.5-0.3,9.8c-5.3-0.2-9.5-4.5-9.5-9.8c0-5.3,4.2-9.6,9.5-9.8
							C900,1023.5,900.1,1026.8,900.1,1030.1z"/>
						<linearGradient id="XMLID_155_" gradientUnits="userSpaceOnUse" x1="759.585" y1="901.3514" x2="759.585" y2="1192.5039">
							<stop  offset="0" style="stop-color:#FF9AF5"/>
							<stop  offset="1" style="stop-color:#5E86FF"/>
						</linearGradient>
						<path id="XMLID_537_" fill="url(#XMLID_155_)" d="M899.7,1039.9c-0.4,5.8-1.1,11.5-2.2,17.1c-5.1-1.2-10.3,1.9-11.7,7
							c-1.4,5.1,1.6,10.4,6.6,11.9c-1.9,5.5-4.1,10.8-6.6,15.9c-4.6-2.5-10.5-0.9-13.1,3.7c-2.7,4.6-1.2,10.4,3.3,13.2
							c-3.2,4.8-6.7,9.3-10.5,13.6c-3.8-3.6-9.9-3.5-13.6,0.2c-3.7,3.7-3.8,9.8-0.2,13.6c-4.3,3.8-8.9,7.3-13.6,10.5
							c-2.8-4.5-8.6-6-13.2-3.3c-4.6,2.7-6.2,8.5-3.7,13.1c-5.1,2.5-10.4,4.7-15.9,6.6c-1.5-5.1-6.8-8-11.9-6.6
							c-5.1,1.4-8.2,6.6-7,11.7c-5.6,1.1-11.3,1.8-17.1,2.2c-0.2-5.2-4.5-9.5-9.8-9.5s-9.6,4.2-9.8,9.5c-5.8-0.4-11.5-1.1-17.1-2.2
							c1.2-5.1-1.9-10.3-7-11.7c-5.1-1.4-10.4,1.6-11.9,6.6c-5.5-1.9-10.8-4.1-15.9-6.6c2.5-4.6,0.9-10.4-3.7-13.1
							c-4.6-2.7-10.4-1.2-13.2,3.3c-4.8-3.2-9.3-6.7-13.6-10.5c3.6-3.8,3.5-9.9-0.2-13.6c-3.7-3.7-9.8-3.8-13.6-0.2
							c-3.8-4.3-7.3-8.9-10.5-13.6c4.5-2.8,6-8.6,3.3-13.2c-2.7-4.6-8.5-6.2-13.1-3.7c-0.5-1-1-2.1-1.5-3.1
							c-1.9-4.1-3.6-8.4-5.1-12.7c5-1.5,8-6.8,6.6-11.9c-1.4-5.1-6.6-8.2-11.7-7c-1.1-5.6-1.8-11.3-2.2-17.1
							c5.3-0.2,9.5-4.5,9.5-9.8c0-5.3-4.2-9.6-9.5-9.8c0.4-5.8,1.1-11.5,2.2-17.1c5.1,1.2,10.3-1.9,11.7-7
							c1.4-5.1-1.6-10.4-6.6-11.9c1.9-5.5,4.1-10.8,6.6-15.9c4.6,2.5,10.5,0.9,13.1-3.7c2.7-4.6,1.2-10.4-3.3-13.2
							c3.2-4.8,6.7-9.3,10.5-13.6c3.8,3.6,9.9,3.5,13.6-0.2c3.7-3.7,3.8-9.8,0.2-13.6c4.3-3.8,8.9-7.2,13.6-10.5
							c2.8,4.5,8.6,6,13.2,3.3c4.6-2.7,6.2-8.5,3.7-13.1c5.1-2.5,10.4-4.7,15.9-6.6c1.5,5.1,6.8,8,11.9,6.6c5.1-1.4,8.2-6.6,7-11.7
							c5.6-1.1,11.3-1.8,17.1-2.2c0.2,5.2,4.5,9.5,9.8,9.5s9.6-4.2,9.8-9.5c5.8,0.4,11.5,1.1,17.1,2.2c-1.2,5.1,1.9,10.3,7,11.7
							c5.1,1.4,10.4-1.6,11.9-6.6c5.5,1.9,10.8,4.1,15.9,6.6c-2.5,4.6-0.9,10.4,3.7,13.1c4.6,2.7,10.4,1.2,13.2-3.3
							c4.8,3.2,9.3,6.7,13.6,10.5c-3.6,3.8-3.5,9.9,0.2,13.6c3.7,3.7,9.8,3.8,13.6,0.2c3.8,4.3,7.3,8.9,10.5,13.6
							c-4.5,2.8-6,8.6-3.3,13.2c2.7,4.6,8.5,6.2,13.1,3.7c0.5,1,1,2.1,1.5,3.1c1.9,4.1,3.6,8.4,5.1,12.7c-5,1.5-8,6.8-6.6,11.9
							c1.4,5.1,6.6,8.2,11.7,7c1.1,5.6,1.8,11.3,2.2,17.1c-5.3,0.2-9.5,4.5-9.5,9.8C890.3,1035.4,894.5,1039.7,899.7,1039.9z"/>
					</g>
					<g id="XMLID_193_">
						<path id="XMLID_535_" fill="#5E86FF" d="M879.9,1030.1c0,44.5-24.2,83.4-60.1,104.2c-17.7,10.2-38.2,16.1-60.2,16.1
							c-21.9,0-42.5-5.9-60.2-16.1c-10.9-6.3-20.8-14.3-29.2-23.6c-8.2-9-15-19.3-20.1-30.5c-7-15.2-10.9-32.2-10.9-50.1
							c0-44.5,24.2-83.4,60.1-104.2c17.7-10.2,38.2-16.1,60.2-16.1c21.9,0,42.5,5.9,60.2,16.1c10.9,6.3,20.8,14.3,29.2,23.6
							c8.2,9,15,19.3,20.1,30.5C876,995.3,879.9,1012.2,879.9,1030.1z"/>
						<linearGradient id="XMLID_156_" gradientUnits="userSpaceOnUse" x1="759.585" y1="1202.1559" x2="759.585" y2="1027.2212">
							<stop  offset="0" style="stop-color:#4568FF"/>
							<stop  offset="1" style="stop-color:#FFFFFF"/>
						</linearGradient>
						<path id="XMLID_533_" fill="url(#XMLID_156_)" d="M819.7,1134.3c-17.7,10.2-38.2,16.1-60.2,16.1c-21.9,0-42.5-5.9-60.2-16.1
							l60.2-104.2L819.7,1134.3z"/>
						<linearGradient id="XMLID_157_" gradientUnits="userSpaceOnUse" x1="759.585" y1="847.3553" x2="759.585" y2="1005.0056">
							<stop  offset="0" style="stop-color:#4568FF"/>
							<stop  offset="1" style="stop-color:#FFFFFF"/>
						</linearGradient>
						<path id="XMLID_196_" fill="url(#XMLID_157_)" d="M819.7,925.9l-60.2,104.2l-60.2-104.2c17.7-10.2,38.2-16.1,60.2-16.1
							C781.5,909.8,802,915.7,819.7,925.9z"/>
						<linearGradient id="XMLID_158_" gradientUnits="userSpaceOnUse" x1="561.5845" y1="1198.4165" x2="709.1127" y2="1050.8884">
							<stop  offset="0" style="stop-color:#4568FF"/>
							<stop  offset="1" style="stop-color:#FFFFFF"/>
						</linearGradient>
						<path id="XMLID_195_" fill="url(#XMLID_158_)" d="M759.6,1030.1l-89.3,80.6c-8.2-9-15-19.3-20.1-30.5L759.6,1030.1z"/>
						<linearGradient id="XMLID_159_" gradientUnits="userSpaceOnUse" x1="975.5287" y1="843.8187" x2="746.6678" y2="1072.6796">
							<stop  offset="0" style="stop-color:#4568FF"/>
							<stop  offset="1" style="stop-color:#FFFFFF"/>
						</linearGradient>
						<path id="XMLID_194_" fill="url(#XMLID_159_)" d="M869,980l-109.4,50.1l89.3-80.6C857.1,958.5,863.9,968.8,869,980z"/>
					</g>
				</g>
			</g>
			<g id="XMLID_341_">
				<g id="XMLID_698_">
					<rect id="XMLID_62_" x="527.8" y="948.5" fill="#FFFFFF" width="21.9" height="2"/>
				</g>
				<g id="XMLID_697_">
					<rect id="XMLID_61_" x="532.4" y="961.3" fill="#FFFFFF" width="12.7" height="2"/>
				</g>
				<g id="XMLID_696_">
					<rect id="XMLID_60_" x="532.4" y="974.1" fill="#FFFFFF" width="12.7" height="2"/>
				</g>
				<g id="XMLID_695_">
					<rect id="XMLID_59_" x="532.4" y="986.9" fill="#FFFFFF" width="12.7" height="2"/>
				</g>
				<g id="XMLID_694_">
					<rect id="XMLID_58_" x="532.4" y="999.8" fill="#FFFFFF" width="12.7" height="2"/>
				</g>
				<g id="XMLID_693_">
					<rect id="XMLID_57_" x="527.8" y="1012.6" fill="#FFFFFF" width="21.9" height="2"/>
				</g>
				<g id="XMLID_692_">
					<rect id="XMLID_56_" x="532.4" y="1025.4" fill="#FFFFFF" width="12.7" height="2"/>
				</g>
				<g id="XMLID_691_">
					<rect id="XMLID_55_" x="532.4" y="1038.2" fill="#FFFFFF" width="12.7" height="2"/>
				</g>
				<g id="XMLID_690_">
					<rect id="XMLID_54_" x="532.4" y="1051" fill="#FFFFFF" width="12.7" height="2"/>
				</g>
				<g id="XMLID_689_">
					<rect id="XMLID_53_" x="532.4" y="1063.8" fill="#FFFFFF" width="12.7" height="2"/>
				</g>
				<g id="XMLID_688_">
					<rect id="XMLID_52_" x="527.8" y="1076.6" fill="#FFFFFF" width="21.9" height="2"/>
				</g>
				<g id="XMLID_687_">
					<rect id="XMLID_51_" x="532.4" y="1089.4" fill="#FFFFFF" width="12.7" height="2"/>
				</g>
				<g id="XMLID_686_">
					<rect id="XMLID_50_" x="532.4" y="1102.2" fill="#FFFFFF" width="12.7" height="2"/>
				</g>
				<g id="XMLID_685_">
					<rect id="XMLID_49_" x="532.4" y="1115" fill="#FFFFFF" width="12.7" height="2"/>
				</g>
				<g id="XMLID_684_">
					<rect id="XMLID_48_" x="532.4" y="1127.8" fill="#FFFFFF" width="12.7" height="2"/>
				</g>
				<g id="XMLID_683_">
					<rect id="XMLID_47_" x="527.8" y="1140.7" fill="#FFFFFF" width="21.9" height="2"/>
				</g>
			</g>
			<g id="XMLID_372_">
				<rect id="XMLID_191_" x="506.9" y="949.5" fill="#041CA9" width="8" height="192.5"/>
				<rect id="XMLID_249_" x="561.8" y="949.7" fill="#041CA9" width="8" height="192.5"/>
				<rect id="XMLID_243_" x="492.5" y="969.8" fill="#5E86FF" width="36.7" height="14.7"/>
				<rect id="XMLID_371_" x="547.5" y="1017.5" fill="#5E86FF" width="36.7" height="14.7"/>
			</g>
			<rect id="XMLID_719_" x="473.5" y="1209.2" fill="#041CA9" width="129.6" height="5.4"/>
			<rect id="XMLID_238_" x="547.6" y="1199.5" fill="#5E86FF" width="9.9" height="24.7"/>
			<rect id="XMLID_760_" x="161.9" y="805.6" fill="#041CA9" width="5.4" height="129.6"/>
			<rect id="XMLID_759_" x="152.2" y="851.3" fill="#5E86FF" width="24.7" height="9.9"/>
			<rect id="XMLID_762_" x="904.8" y="805.6" fill="#041CA9" width="5.4" height="129.6"/>
			<rect id="XMLID_761_" x="895.2" y="851.3" fill="#5E86FF" width="24.7" height="9.9"/>
			<g id="XMLID_682_">
				<g id="XMLID_679_">
					<path id="XMLID_700_" fill="#5E86FF" d="M482.1,816.6c0,6.1-4.9,11-11,11c-6.1,0-11-4.9-11-11c0-5.7,4.4-10.5,10-11
						c0.3,0,0.7,0,1,0c0.3,0,0.7,0,1,0C477.7,806.2,482.1,810.9,482.1,816.6z"/>
					<path id="XMLID_680_" fill="#041CA9" d="M472.1,805.7v5h-2v-5c0.3,0,0.7,0,1,0C471.4,805.6,471.7,805.6,472.1,805.7z"/>
				</g>
				<g id="XMLID_726_">
					<path id="XMLID_730_" fill="#5E86FF" d="M482.1,855.8c0,6.1-4.9,11-11,11c-6.1,0-11-4.9-11-11c0-5.7,4.4-10.5,10-11
						c0.3,0,0.7,0,1,0c0.3,0,0.7,0,1,0C477.7,845.3,482.1,850.1,482.1,855.8z"/>
					<path id="XMLID_727_" fill="#041CA9" d="M472.1,844.8v5h-2v-5c0.3,0,0.7,0,1,0C471.4,844.8,471.7,844.8,472.1,844.8z"/>
				</g>
				<g id="XMLID_731_">
					<path id="XMLID_735_" fill="#5E86FF" d="M482.1,895c0,6.1-4.9,11-11,11c-6.1,0-11-4.9-11-11c0-5.7,4.4-10.5,10-11
						c0.3,0,0.7,0,1,0c0.3,0,0.7,0,1,0C477.7,884.5,482.1,889.2,482.1,895z"/>
					<path id="XMLID_732_" fill="#041CA9" d="M472.1,884v5h-2v-5c0.3,0,0.7,0,1,0C471.4,883.9,471.7,884,472.1,884z"/>
				</g>
				<g id="XMLID_699_">
					<path id="XMLID_704_" fill="#5E86FF" d="M527.2,816.6c0,6.1-4.9,11-11,11c-6.1,0-11-4.9-11-11c0-5.7,4.4-10.5,10-11
						c0.3,0,0.7,0,1,0c0.3,0,0.7,0,1,0C522.8,806.2,527.2,810.9,527.2,816.6z"/>
					<path id="XMLID_701_" fill="#041CA9" d="M517.2,805.7v5h-2v-5c0.3,0,0.7,0,1,0C516.5,805.6,516.9,805.6,517.2,805.7z"/>
				</g>
				<g id="XMLID_746_">
					<path id="XMLID_750_" fill="#5E86FF" d="M527.2,855.8c0,6.1-4.9,11-11,11c-6.1,0-11-4.9-11-11c0-5.7,4.4-10.5,10-11
						c0.3,0,0.7,0,1,0c0.3,0,0.7,0,1,0C522.8,845.3,527.2,850.1,527.2,855.8z"/>
					<path id="XMLID_747_" fill="#041CA9" d="M517.2,844.8v5h-2v-5c0.3,0,0.7,0,1,0C516.5,844.8,516.9,844.8,517.2,844.8z"/>
				</g>
				<g id="XMLID_707_">
					<path id="XMLID_720_" fill="#5E86FF" d="M572.3,816.6c0,6.1-4.9,11-11,11c-6.1,0-11-4.9-11-11c0-5.7,4.4-10.5,10-11
						c0.3,0,0.7,0,1,0c0.3,0,0.7,0,1,0C568,806.2,572.3,810.9,572.3,816.6z"/>
					<path id="XMLID_712_" fill="#041CA9" d="M562.3,805.7v5h-2v-5c0.3,0,0.7,0,1,0C561.7,805.6,562,805.6,562.3,805.7z"/>
				</g>
				<g id="XMLID_751_">
					<path id="XMLID_755_" fill="#5E86FF" d="M572.3,855.8c0,6.1-4.9,11-11,11c-6.1,0-11-4.9-11-11c0-5.7,4.4-10.5,10-11
						c0.3,0,0.7,0,1,0c0.3,0,0.7,0,1,0C568,845.3,572.3,850.1,572.3,855.8z"/>
					<path id="XMLID_752_" fill="#041CA9" d="M562.3,844.8v5h-2v-5c0.3,0,0.7,0,1,0C561.7,844.8,562,844.8,562.3,844.8z"/>
				</g>
				<g id="XMLID_721_">
					<path id="XMLID_725_" fill="#5E86FF" d="M617.5,816.6c0,6.1-4.9,11-11,11c-6.1,0-11-4.9-11-11c0-5.7,4.4-10.5,10-11
						c0.3,0,0.7,0,1,0c0.3,0,0.7,0,1,0C613.1,806.2,617.5,810.9,617.5,816.6z"/>
					<path id="XMLID_722_" fill="#041CA9" d="M607.5,805.7v5h-2v-5c0.3,0,0.7,0,1,0C606.8,805.6,607.2,805.6,607.5,805.7z"/>
				</g>
				<g id="XMLID_736_">
					<path id="XMLID_740_" fill="#5E86FF" d="M617.5,855.8c0,6.1-4.9,11-11,11c-6.1,0-11-4.9-11-11c0-5.7,4.4-10.5,10-11
						c0.3,0,0.7,0,1,0c0.3,0,0.7,0,1,0C613.1,845.3,617.5,850.1,617.5,855.8z"/>
					<path id="XMLID_737_" fill="#041CA9" d="M607.5,844.8v5h-2v-5c0.3,0,0.7,0,1,0C606.8,844.8,607.2,844.8,607.5,844.8z"/>
				</g>
				<g id="XMLID_741_">
					<path id="XMLID_745_" fill="#5E86FF" d="M617.5,895c0,6.1-4.9,11-11,11c-6.1,0-11-4.9-11-11c0-5.7,4.4-10.5,10-11
						c0.3,0,0.7,0,1,0c0.3,0,0.7,0,1,0C613.1,884.5,617.5,889.2,617.5,895z"/>
					<path id="XMLID_742_" fill="#041CA9" d="M607.5,884v5h-2v-5c0.3,0,0.7,0,1,0C606.8,883.9,607.2,884,607.5,884z"/>
				</g>
			</g>
			<linearGradient id="XMLID_160_" gradientUnits="userSpaceOnUse" x1="516.1767" y1="887.5697" x2="516.1767" y2="902.3801">
				<stop  offset="0" style="stop-color:#FF9AF5"/>
				<stop  offset="1" style="stop-color:#AC90FA"/>
			</linearGradient>
			<path id="XMLID_756_" fill="url(#XMLID_160_)" d="M528.7,902.4h-25c-2.8,0-5.1-2.3-5.1-5.1v-4.7c0-2.8,2.3-5.1,5.1-5.1h25
				c2.8,0,5.1,2.3,5.1,5.1v4.7C533.7,900.1,531.5,902.4,528.7,902.4z"/>
			<linearGradient id="XMLID_161_" gradientUnits="userSpaceOnUse" x1="560.4017" y1="887.5697" x2="560.4017" y2="902.3801">
				<stop  offset="0" style="stop-color:#FF9AF5"/>
				<stop  offset="1" style="stop-color:#AC90FA"/>
			</linearGradient>
			<path id="XMLID_758_" fill="url(#XMLID_161_)" d="M572.9,902.4h-25c-2.8,0-5.1-2.3-5.1-5.1v-4.7c0-2.8,2.3-5.1,5.1-5.1h25
				c2.8,0,5.1,2.3,5.1,5.1v4.7C578,900.1,575.7,902.4,572.9,902.4z"/>
			<path id="XMLID_757_" fill="#041CA9" d="M237.8,824.6h-23.6c-1.9,0-3.5-1.6-3.5-3.5v-8.9c0-1.9,1.6-3.5,3.5-3.5h23.6
				c1.9,0,3.5,1.6,3.5,3.5v8.9C241.3,823,239.7,824.6,237.8,824.6z"/>
			<path id="XMLID_764_" fill="#5E86FF" d="M283.4,824.6h-23.6c-1.9,0-3.5-1.6-3.5-3.5v-8.9c0-1.9,1.6-3.5,3.5-3.5h23.6
				c1.9,0,3.5,1.6,3.5,3.5v8.9C286.9,823,285.3,824.6,283.4,824.6z"/>
			<linearGradient id="XMLID_162_" gradientUnits="userSpaceOnUse" x1="317.1087" y1="808.6787" x2="317.1087" y2="824.6033">
				<stop  offset="0" style="stop-color:#FF9AF5"/>
				<stop  offset="1" style="stop-color:#AC90FA"/>
			</linearGradient>
			<path id="XMLID_765_" fill="url(#XMLID_162_)" d="M328.9,824.6h-23.6c-1.9,0-3.5-1.6-3.5-3.5v-8.9c0-1.9,1.6-3.5,3.5-3.5h23.6
				c1.9,0,3.5,1.6,3.5,3.5v8.9C332.4,823,330.9,824.6,328.9,824.6z"/>
			<path id="XMLID_766_" fill="#5E86FF" d="M374.5,824.6h-23.6c-1.9,0-3.5-1.6-3.5-3.5v-8.9c0-1.9,1.6-3.5,3.5-3.5h23.6
				c1.9,0,3.5,1.6,3.5,3.5v8.9C378,823,376.4,824.6,374.5,824.6z"/>
			<path id="XMLID_767_" fill="#5E86FF" d="M420,824.6h-23.6c-1.9,0-3.5-1.6-3.5-3.5v-8.9c0-1.9,1.6-3.5,3.5-3.5H420
				c1.9,0,3.5,1.6,3.5,3.5v8.9C423.5,823,422,824.6,420,824.6z"/>
			<path id="XMLID_772_" fill="#5E86FF" d="M237.8,852.7h-23.6c-1.9,0-3.5-1.6-3.5-3.5v-8.9c0-1.9,1.6-3.5,3.5-3.5h23.6
				c1.9,0,3.5,1.6,3.5,3.5v8.9C241.3,851.2,239.7,852.7,237.8,852.7z"/>
			<linearGradient id="XMLID_163_" gradientUnits="userSpaceOnUse" x1="271.5544" y1="836.8182" x2="271.5544" y2="852.7428">
				<stop  offset="0" style="stop-color:#FF9AF5"/>
				<stop  offset="1" style="stop-color:#AC90FA"/>
			</linearGradient>
			<path id="XMLID_771_" fill="url(#XMLID_163_)" d="M283.4,852.7h-23.6c-1.9,0-3.5-1.6-3.5-3.5v-8.9c0-1.9,1.6-3.5,3.5-3.5h23.6
				c1.9,0,3.5,1.6,3.5,3.5v8.9C286.9,851.2,285.3,852.7,283.4,852.7z"/>
			<path id="XMLID_770_" fill="#041CA9" d="M328.9,852.7h-23.6c-1.9,0-3.5-1.6-3.5-3.5v-8.9c0-1.9,1.6-3.5,3.5-3.5h23.6
				c1.9,0,3.5,1.6,3.5,3.5v8.9C332.4,851.2,330.9,852.7,328.9,852.7z"/>
			<path id="XMLID_769_" fill="#5E86FF" d="M374.5,852.7h-23.6c-1.9,0-3.5-1.6-3.5-3.5v-8.9c0-1.9,1.6-3.5,3.5-3.5h23.6
				c1.9,0,3.5,1.6,3.5,3.5v8.9C378,851.2,376.4,852.7,374.5,852.7z"/>
			<linearGradient id="XMLID_164_" gradientUnits="userSpaceOnUse" x1="408.2172" y1="836.8182" x2="408.2172" y2="852.7428">
				<stop  offset="0" style="stop-color:#FF9AF5"/>
				<stop  offset="1" style="stop-color:#AC90FA"/>
			</linearGradient>
			<path id="XMLID_768_" fill="url(#XMLID_164_)" d="M420,852.7h-23.6c-1.9,0-3.5-1.6-3.5-3.5v-8.9c0-1.9,1.6-3.5,3.5-3.5H420
				c1.9,0,3.5,1.6,3.5,3.5v8.9C423.5,851.2,422,852.7,420,852.7z"/>
			<linearGradient id="XMLID_165_" gradientUnits="userSpaceOnUse" x1="668.4765" y1="810.6617" x2="668.4765" y2="826.5863">
				<stop  offset="0" style="stop-color:#FF9AF5"/>
				<stop  offset="1" style="stop-color:#AC90FA"/>
			</linearGradient>
			<path id="XMLID_782_" fill="url(#XMLID_165_)" d="M680.3,826.6h-23.6c-1.9,0-3.5-1.6-3.5-3.5v-8.9c0-1.9,1.6-3.5,3.5-3.5h23.6
				c1.9,0,3.5,1.6,3.5,3.5v8.9C683.8,825,682.2,826.6,680.3,826.6z"/>
			<path id="XMLID_781_" fill="#041CA9" d="M725.8,826.6h-23.6c-1.9,0-3.5-1.6-3.5-3.5v-8.9c0-1.9,1.6-3.5,3.5-3.5h23.6
				c1.9,0,3.5,1.6,3.5,3.5v8.9C729.3,825,727.8,826.6,725.8,826.6z"/>
			<path id="XMLID_780_" fill="#5E86FF" d="M771.4,826.6h-23.6c-1.9,0-3.5-1.6-3.5-3.5v-8.9c0-1.9,1.6-3.5,3.5-3.5h23.6
				c1.9,0,3.5,1.6,3.5,3.5v8.9C774.9,825,773.3,826.6,771.4,826.6z"/>
			<path id="XMLID_779_" fill="#5E86FF" d="M817,826.6h-23.6c-1.9,0-3.5-1.6-3.5-3.5v-8.9c0-1.9,1.6-3.5,3.5-3.5H817
				c1.9,0,3.5,1.6,3.5,3.5v8.9C820.5,825,818.9,826.6,817,826.6z"/>
			<path id="XMLID_778_" fill="#041CA9" d="M862.5,826.6h-23.6c-1.9,0-3.5-1.6-3.5-3.5v-8.9c0-1.9,1.6-3.5,3.5-3.5h23.6
				c1.9,0,3.5,1.6,3.5,3.5v8.9C866,825,864.4,826.6,862.5,826.6z"/>
			<path id="XMLID_777_" fill="#5E86FF" d="M680.3,854.7h-23.6c-1.9,0-3.5-1.6-3.5-3.5v-8.9c0-1.9,1.6-3.5,3.5-3.5h23.6
				c1.9,0,3.5,1.6,3.5,3.5v8.9C683.8,853.2,682.2,854.7,680.3,854.7z"/>
			<linearGradient id="XMLID_166_" gradientUnits="userSpaceOnUse" x1="714.0308" y1="838.8012" x2="714.0308" y2="854.7258">
				<stop  offset="0" style="stop-color:#FF9AF5"/>
				<stop  offset="1" style="stop-color:#AC90FA"/>
			</linearGradient>
			<path id="XMLID_776_" fill="url(#XMLID_166_)" d="M725.8,854.7h-23.6c-1.9,0-3.5-1.6-3.5-3.5v-8.9c0-1.9,1.6-3.5,3.5-3.5h23.6
				c1.9,0,3.5,1.6,3.5,3.5v8.9C729.3,853.2,727.8,854.7,725.8,854.7z"/>
			<path id="XMLID_775_" fill="#041CA9" d="M771.4,854.7h-23.6c-1.9,0-3.5-1.6-3.5-3.5v-8.9c0-1.9,1.6-3.5,3.5-3.5h23.6
				c1.9,0,3.5,1.6,3.5,3.5v8.9C774.9,853.2,773.3,854.7,771.4,854.7z"/>
			<linearGradient id="XMLID_167_" gradientUnits="userSpaceOnUse" x1="805.1392" y1="838.8012" x2="805.1392" y2="854.7258">
				<stop  offset="0" style="stop-color:#FF9AF5"/>
				<stop  offset="1" style="stop-color:#AC90FA"/>
			</linearGradient>
			<path id="XMLID_774_" fill="url(#XMLID_167_)" d="M817,854.7h-23.6c-1.9,0-3.5-1.6-3.5-3.5v-8.9c0-1.9,1.6-3.5,3.5-3.5H817
				c1.9,0,3.5,1.6,3.5,3.5v8.9C820.5,853.2,818.9,854.7,817,854.7z"/>
			<path id="XMLID_773_" fill="#5E86FF" d="M862.5,854.7h-23.6c-1.9,0-3.5-1.6-3.5-3.5v-8.9c0-1.9,1.6-3.5,3.5-3.5h23.6
				c1.9,0,3.5,1.6,3.5,3.5v8.9C866,853.2,864.4,854.7,862.5,854.7z"/>
		</g>
		<g id="XMLID_803_">
			<path id="XMLID_239_" fill="#0448DB" d="M945.8,453.8H755.6c-5.4,0-9.8-4.4-9.8-9.8V153.5c0-5.4,4.4-9.8,9.8-9.8h190.1
				c5.4,0,9.8,4.4,9.8,9.8v290.6C955.5,449.5,951.1,453.8,945.8,453.8z"/>
			<g id="XMLID_332_">
				<circle id="XMLID_242_" fill="#5E86FF" cx="850.7" cy="327" r="75.4"/>
				<circle id="XMLID_328_" fill="#041CA9" cx="850.7" cy="327" r="64.4"/>
				<linearGradient id="XMLID_168_" gradientUnits="userSpaceOnUse" x1="850.6935" y1="296.0718" x2="850.6935" y2="349.9287">
					<stop  offset="0" style="stop-color:#FF9AF5"/>
					<stop  offset="1" style="stop-color:#5E86FF"/>
				</linearGradient>
				<circle id="XMLID_325_" fill="url(#XMLID_168_)" cx="850.7" cy="327" r="27.4"/>
			</g>
			<path id="XMLID_333_" fill="#041CA9" d="M917.8,436.8H783.6c-4.6,0-8.3-3.7-8.3-8.3v-1c0-4.6,3.7-8.3,8.3-8.3h134.1
				c4.6,0,8.3,3.7,8.3,8.3v1C926.1,433,922.4,436.8,917.8,436.8z"/>
			<g id="XMLID_336_">
				<circle id="XMLID_488_" fill="#041CA9" cx="850.7" cy="201.5" r="32.2"/>
				<linearGradient id="XMLID_169_" gradientUnits="userSpaceOnUse" x1="850.6935" y1="175.4419" x2="850.6935" y2="220.8235">
					<stop  offset="0" style="stop-color:#FF9AF5"/>
					<stop  offset="1" style="stop-color:#5E86FF"/>
				</linearGradient>
				<circle id="XMLID_367_" fill="url(#XMLID_169_)" cx="850.7" cy="201.5" r="23.1"/>
			</g>
			<circle id="XMLID_802_" fill="#5E86FF" cx="761.1" cy="158" r="4.8"/>
			<circle id="XMLID_804_" fill="#5E86FF" cx="940.8" cy="158" r="4.8"/>
			<circle id="XMLID_806_" fill="#5E86FF" cx="761.1" cy="440.2" r="4.8"/>
			<circle id="XMLID_805_" fill="#5E86FF" cx="940.8" cy="440.2" r="4.8"/>
		</g>
		<g id="XMLID_820_">
			<g id="XMLID_252_">
				<path id="XMLID_824_" fill="#5E86FF" d="M730.4,698.8h-6.9v-67.9c0-4.1,1.6-8,4.5-10.9l11.8-11.8c1.6-1.6,2.5-3.7,2.5-6v-23.5
					h6.9v23.5c0,4.1-1.6,8-4.5,10.9l-11.8,11.8c-1.6,1.6-2.5,3.7-2.5,6V698.8z"/>
			</g>
			<path id="XMLID_835_" fill="#041CA9" d="M837.4,495.9v17.5c-49.2,0-73.5,25.4-82.4,60c-2,7.6-8,12.8-14.7,12.8h-3.9
				C742.4,535.9,770.4,495.9,837.4,495.9z"/>
			<g id="XMLID_254_">
				<g id="XMLID_248_">
					<path id="XMLID_251_" fill="#5E86FF" d="M743.7,642.5h4v93.1h-4.3c-11.7,0-22-8-24.5-19.4c-3.9-17.4-4-35.4,0.1-53.9
						C721.6,650.7,731.8,642.5,743.7,642.5z"/>
					<path id="XMLID_245_" fill="#041CA9" d="M774,743.2h-10.9c-2.2,0-4-1.8-4-4v-99c0-2.2,1.8-4,4-4H774c8.2,0,14.9,6.7,14.9,14.9
						v77.2C788.8,736.6,782.2,743.2,774,743.2z"/>
					<path id="XMLID_246_" fill="#0448DB" d="M739.7,634.9h16.1c1.8,0,3.3,1.5,3.3,3.3v101.7c0,1.8-1.5,3.3-3.3,3.3h-16.1
						c-1.8,0-3.3-1.5-3.3-3.3V638.2C736.3,636.4,737.8,634.9,739.7,634.9z"/>
				</g>
				<g id="XMLID_261_">
					<path id="XMLID_826_" fill="#5E86FF" d="M932.6,642.5h-4v93.1h4.3c11.7,0,22-8,24.5-19.4c3.9-17.4,4-35.4-0.1-53.9
						C954.7,650.7,944.4,642.5,932.6,642.5z"/>
					<path id="XMLID_823_" fill="#041CA9" d="M902.3,743.2h10.9c2.2,0,4-1.8,4-4v-99c0-2.2-1.8-4-4-4h-10.9
						c-8.2,0-14.9,6.7-14.9,14.9v77.2C887.4,736.6,894.1,743.2,902.3,743.2z"/>
					<path id="XMLID_821_" fill="#0448DB" d="M936.6,634.9h-16.1c-1.8,0-3.3,1.5-3.3,3.3v101.7c0,1.8,1.5,3.3,3.3,3.3h16.1
						c1.8,0,3.3-1.5,3.3-3.3V638.2C940,636.4,938.5,634.9,936.6,634.9z"/>
				</g>
			</g>
			<g id="XMLID_256_">
				<path id="XMLID_822_" fill="#5E86FF" d="M952.8,698.8h-6.9v-67.9c0-2.3-0.9-4.4-2.5-6l-11.8-11.8c-2.9-2.9-4.5-6.8-4.5-10.9
					v-23.5h6.9v23.5c0,2.3,0.9,4.4,2.5,6l11.8,11.8c2.9,2.9,4.5,6.8,4.5,10.9V698.8z"/>
			</g>
			<path id="XMLID_255_" fill="#041CA9" d="M837.4,495.9v17.5c49.2,0,73.5,25.4,82.4,60c2,7.6,8,12.8,14.7,12.8h3.9
				C932.3,535.9,904.4,495.9,837.4,495.9z"/>
		</g>
		<g id="XMLID_829_">
			<path id="XMLID_825_" fill="#041CA9" d="M385.4,631.1H141.8c-5.4,0-9.7,4.3-9.7,9.7v105.7c0,5.4,4.3,9.7,9.7,9.7h243.6
				c5.4,0,9.7-4.3,9.7-9.7V640.8C395.1,635.5,390.8,631.1,385.4,631.1z"/>
			<linearGradient id="XMLID_170_" gradientUnits="userSpaceOnUse" x1="139.1149" y1="694.0513" x2="387.8531" y2="694.0513">
				<stop  offset="0" style="stop-color:#FF9AF5"/>
				<stop  offset="1" style="stop-color:#5E86FF"/>
			</linearGradient>
			<path id="XMLID_827_" fill="url(#XMLID_170_)" d="M381.5,750.9H145.4c-3.5,0-6.3-2.8-6.3-6.3V643.5c0-3.5,2.8-6.3,6.3-6.3h236.1
				c3.5,0,6.3,2.8,6.3,6.3v101.1C387.9,748.1,385,750.9,381.5,750.9z"/>
			<path id="XMLID_828_" fill="#041CA9" d="M143.2,726.8h-4.1v-66.3h4.1c3.1,0,5.6,2.5,5.6,5.6v55
				C148.8,724.3,146.3,726.8,143.2,726.8z"/>
		</g>
		<g id="XMLID_858_">
			<path id="XMLID_849_" fill="#0448DB" d="M674.7,698.8H435.3c-3.5,0-6.4-2.8-6.4-6.4v-55c0-3.5,2.8-6.4,6.4-6.4h239.4
				c3.5,0,6.4,2.8,6.4,6.4v55C681,696,678.2,698.8,674.7,698.8z"/>
			<path id="XMLID_850_" fill="#041CA9" d="M466.9,705.7h-20.7c-1.7,0-3.1-1.4-3.1-3.1v-3.7h27v3.7
				C470,704.3,468.6,705.7,466.9,705.7z"/>
			<path id="XMLID_852_" fill="#041CA9" d="M658.7,705.7h-20.7c-1.7,0-3.1-1.4-3.1-3.1v-3.7h27v3.7
				C661.8,704.3,660.4,705.7,658.7,705.7z"/>
			<rect id="XMLID_851_" x="444.8" y="647.6" fill="#041CA9" width="15.2" height="31.3"/>
			<g id="XMLID_853_">
				<path id="XMLID_857_" fill="#5E86FF" d="M511.4,663.3c0,6.1-4.9,11-11,11c-6.1,0-11-4.9-11-11c0-5.7,4.4-10.5,10-11
					c0.3,0,0.7,0,1,0c0.3,0,0.7,0,1,0C507,652.8,511.4,657.5,511.4,663.3z"/>
				<path id="XMLID_854_" fill="#041CA9" d="M501.4,652.3v5h-2v-5c0.3,0,0.7,0,1,0C500.7,652.3,501.1,652.3,501.4,652.3z"/>
			</g>
			<g id="XMLID_859_">
				<path id="XMLID_865_" fill="#5E86FF" d="M557.1,663.3c0,6.1-4.9,11-11,11c-6.1,0-11-4.9-11-11c0-5.7,4.4-10.5,10-11
					c0.3,0,0.7,0,1,0c0.3,0,0.7,0,1,0C552.7,652.8,557.1,657.5,557.1,663.3z"/>
				<path id="XMLID_860_" fill="#041CA9" d="M547.1,652.3v5h-2v-5c0.3,0,0.7,0,1,0C546.4,652.3,546.7,652.3,547.1,652.3z"/>
			</g>
			<g id="XMLID_866_">
				<path id="XMLID_872_" fill="#5E86FF" d="M602.7,663.3c0,6.1-4.9,11-11,11c-6.1,0-11-4.9-11-11c0-5.7,4.4-10.5,10-11
					c0.3,0,0.7,0,1,0c0.3,0,0.7,0,1,0C598.3,652.8,602.7,657.5,602.7,663.3z"/>
				<path id="XMLID_867_" fill="#041CA9" d="M592.7,652.3v5h-2v-5c0.3,0,0.7,0,1,0C592,652.3,592.4,652.3,592.7,652.3z"/>
			</g>
			<g id="XMLID_873_">
				<path id="XMLID_877_" fill="#5E86FF" d="M648.3,663.3c0,6.1-4.9,11-11,11c-6.1,0-11-4.9-11-11c0-5.7,4.4-10.5,10-11
					c0.3,0,0.7,0,1,0c0.3,0,0.7,0,1,0C643.9,652.8,648.3,657.5,648.3,663.3z"/>
				<path id="XMLID_874_" fill="#041CA9" d="M638.3,652.3v5h-2v-5c0.3,0,0.7,0,1,0C637.6,652.3,638,652.3,638.3,652.3z"/>
			</g>
		</g>
		<g id="XMLID_881_">
			<path id="XMLID_46_" fill="#0440C4" d="M605.4,754.3H441.6c-5.6,0-10.2-5-10.2-11.1s4.6-11.1,10.2-11.1h200.8c2.2,0,4,1.8,4,4
				s-1.8,4-4,4H441.6c-1.2,0-2.2,1.5-2.2,3.1s1,3.1,2.2,3.1h163.9c2.2,0,4,1.8,4,4S607.7,754.3,605.4,754.3z"/>
		</g>
		<g id="XMLID_880_">
			<linearGradient id="XMLID_171_" gradientUnits="userSpaceOnUse" x1="689.3941" y1="735.4022" x2="668.8578" y2="735.4022">
				<stop  offset="0" style="stop-color:#FF9AF5"/>
				<stop  offset="1" style="stop-color:#5E86FF"/>
			</linearGradient>
			<path id="XMLID_879_" fill="url(#XMLID_171_)" d="M683.6,737.6h-18.4v-4.4h18.4c1.1,0,2.1,0.9,2.1,2.1v0.3
				C685.7,736.7,684.7,737.6,683.6,737.6z"/>
			<rect id="XMLID_878_" x="638" y="729.5" fill="#041CA9" width="29.7" height="13.1"/>
		</g>
		<g id="XMLID_883_">
			<linearGradient id="XMLID_172_" gradientUnits="userSpaceOnUse" x1="652.0409" y1="750.2905" x2="631.5046" y2="750.2905">
				<stop  offset="0" style="stop-color:#FF9AF5"/>
				<stop  offset="1" style="stop-color:#5E86FF"/>
			</linearGradient>
			<path id="XMLID_885_" fill="url(#XMLID_172_)" d="M646.2,752.5h-18.4v-4.4h18.4c1.1,0,2.1,0.9,2.1,2.1v0.3
				C648.3,751.6,647.4,752.5,646.2,752.5z"/>
			<rect id="XMLID_884_" x="600.6" y="744.4" fill="#041CA9" width="29.7" height="13.1"/>
		</g>
		<g id="XMLID_896_">
			<g id="XMLID_848_">
				<linearGradient id="XMLID_173_" gradientUnits="userSpaceOnUse" x1="1112.2615" y1="582.2513" x2="1081.8292" y2="582.2513">
					<stop  offset="0" style="stop-color:#FF9AF5"/>
					<stop  offset="1" style="stop-color:#5E86FF"/>
				</linearGradient>
				<path id="XMLID_847_" fill="url(#XMLID_173_)" d="M1095.3,584.4H1077v-4.4h18.4c1.1,0,2.1,0.9,2.1,2.1v0.3
					C1097.4,583.5,1096.5,584.4,1095.3,584.4z"/>
				<path id="XMLID_830_" fill="#041CA9" d="M1279.5,574.6h-147.6c-3,0-5.5-2.5-5.5-5.5v-65c0-3,2.5-5.5,5.5-5.5h147.6
					c3,0,5.5,2.5,5.5,5.5v65C1285,572.1,1282.5,574.6,1279.5,574.6z"/>
				<g id="XMLID_840_">
					<path id="XMLID_45_" fill="#041095" d="M1000.1,552.8c-2,0-3.7-1.5-4-3.5l-3-22.7c-0.3-2.2,1.3-4.2,3.5-4.5
						c2.2-0.3,4.2,1.3,4.5,3.4l3,22.7c0.3,2.2-1.3,4.2-3.5,4.5C1000.5,552.7,1000.3,552.8,1000.1,552.8z"/>
				</g>
				<g id="XMLID_841_">
					<path id="XMLID_44_" fill="#041095" d="M1014.7,552.8c-2,0-3.7-1.5-4-3.5l-3-22.7c-0.3-2.2,1.3-4.2,3.5-4.5
						c2.2-0.3,4.2,1.3,4.5,3.4l3,22.7c0.3,2.2-1.3,4.2-3.5,4.5C1015.1,552.7,1014.9,552.8,1014.7,552.8z"/>
				</g>
				<g id="XMLID_842_">
					<path id="XMLID_43_" fill="#041095" d="M1029.3,552.8c-2,0-3.7-1.5-4-3.5l-3-22.7c-0.3-2.2,1.3-4.2,3.5-4.5
						c2.2-0.3,4.2,1.3,4.5,3.4l3,22.7c0.3,2.2-1.3,4.2-3.5,4.5C1029.6,552.7,1029.5,552.8,1029.3,552.8z"/>
				</g>
				<g id="XMLID_843_">
					<path id="XMLID_42_" fill="#041095" d="M1043.9,552.8c-2,0-3.7-1.5-4-3.5l-3-22.7c-0.3-2.2,1.3-4.2,3.5-4.5
						c2.2-0.3,4.2,1.3,4.5,3.4l3,22.7c0.3,2.2-1.3,4.2-3.5,4.5C1044.2,552.7,1044,552.8,1043.9,552.8z"/>
				</g>
				<g id="XMLID_844_">
					<path id="XMLID_41_" fill="#041095" d="M1058.4,552.8c-2,0-3.7-1.5-4-3.5l-3-22.7c-0.3-2.2,1.3-4.2,3.5-4.5
						c2.2-0.3,4.2,1.3,4.5,3.4l3,22.7c0.3,2.2-1.3,4.2-3.5,4.5C1058.8,552.7,1058.6,552.8,1058.4,552.8z"/>
				</g>
				<g id="XMLID_845_">
					<path id="XMLID_40_" fill="#041095" d="M1073,552.8c-2,0-3.7-1.5-4-3.5l-3-22.7c-0.3-2.2,1.3-4.2,3.5-4.5
						c2.2-0.3,4.2,1.3,4.5,3.4l3,22.7c0.3,2.2-1.3,4.2-3.5,4.5C1073.4,552.7,1073.2,552.8,1073,552.8z"/>
				</g>
				<g id="XMLID_846_">
					<path id="XMLID_39_" fill="#041095" d="M1134.2,543.4h-47.8c-2,0-3.7-1.5-4-3.5l-1.7-13.4c-0.3-2.2,1.3-4.2,3.5-4.5
						c2.2-0.3,4.2,1.3,4.5,3.4l1.3,9.9h44.3c2.2,0,4,1.8,4,4S1136.4,543.4,1134.2,543.4z"/>
				</g>
				<g id="XMLID_831_">
					<path id="XMLID_38_" fill="#0440C4" d="M1057,586.9h-80.4c-11.2,0-20.3-9.1-20.3-20.3v-11c0-11.2,9.1-20.3,20.3-20.3h6.6
						c1.6,0,3,0.9,3.6,2.3l6.9-13.5c1-2,3.4-2.7,5.4-1.7c2,1,2.7,3.4,1.7,5.4l-11.6,22.7c-0.8,1.5-2.3,2.3-4,2.2
						c-1.6-0.2-3-1.4-3.4-3l-1.7-6.4h-3.5c-6.8,0-12.3,5.5-12.3,12.3v11c0,6.8,5.5,12.3,12.3,12.3h80.4c2.2,0,4,1.8,4,4
						S1059.2,586.9,1057,586.9z"/>
				</g>
				<g id="XMLID_833_">
					<path id="XMLID_37_" fill="#0440C4" d="M1000.1,552.8c-0.6,0-1.2-0.1-1.8-0.4c-2-1-2.7-3.4-1.7-5.4l11.6-22.7
						c1-2,3.4-2.7,5.4-1.7c2,1,2.7,3.4,1.7,5.4l-11.6,22.7C1003,552,1001.6,552.8,1000.1,552.8z"/>
				</g>
				<g id="XMLID_834_">
					<path id="XMLID_36_" fill="#0440C4" d="M1014.7,552.8c-0.6,0-1.2-0.1-1.8-0.4c-2-1-2.7-3.4-1.7-5.4l11.6-22.7
						c1-2,3.4-2.7,5.4-1.7c2,1,2.7,3.4,1.7,5.4l-11.6,22.7C1017.6,552,1016.2,552.8,1014.7,552.8z"/>
				</g>
				<g id="XMLID_836_">
					<path id="XMLID_35_" fill="#0440C4" d="M1029.3,552.8c-0.6,0-1.2-0.1-1.8-0.4c-2-1-2.7-3.4-1.7-5.4l11.6-22.7
						c1-2,3.4-2.7,5.4-1.7c2,1,2.7,3.4,1.7,5.4l-11.6,22.7C1032.1,552,1030.7,552.8,1029.3,552.8z"/>
				</g>
				<g id="XMLID_837_">
					<path id="XMLID_34_" fill="#0440C4" d="M1043.9,552.8c-0.6,0-1.2-0.1-1.8-0.4c-2-1-2.7-3.4-1.7-5.4l11.6-22.7
						c1-2,3.4-2.7,5.4-1.7c2,1,2.7,3.4,1.7,5.4l-11.6,22.7C1046.7,552,1045.3,552.8,1043.9,552.8z"/>
				</g>
				<g id="XMLID_838_">
					<path id="XMLID_33_" fill="#0440C4" d="M1058.4,552.8c-0.6,0-1.2-0.1-1.8-0.4c-2-1-2.7-3.4-1.7-5.4l11.6-22.7
						c1-2,3.4-2.7,5.4-1.7c2,1,2.7,3.4,1.7,5.4l-11.6,22.7C1061.3,552,1059.9,552.8,1058.4,552.8z"/>
				</g>
				<g id="XMLID_839_">
					<path id="XMLID_32_" fill="#0440C4" d="M1073,552.8c-0.6,0-1.2-0.1-1.8-0.4c-2-1-2.7-3.4-1.7-5.4l11.6-22.7
						c1-2,3.4-2.7,5.4-1.7c2,1,2.7,3.4,1.7,5.4l-11.6,22.7C1075.9,552,1074.5,552.8,1073,552.8z"/>
				</g>
				<rect id="XMLID_832_" x="1049.7" y="576.4" fill="#041CA9" width="29.7" height="13.1"/>
			</g>
			<g id="XMLID_889_">
				<path id="XMLID_888_" fill="#5E86FF" d="M1160.9,532.7c0,5.4-4.4,9.8-9.8,9.8c-5.4,0-9.8-4.4-9.8-9.8c0-5.1,3.9-9.3,8.9-9.8
					c0.3,0,0.6,0,0.9,0c0.3,0,0.6,0,0.9,0C1157,523.4,1160.9,527.6,1160.9,532.7z"/>
				<path id="XMLID_882_" fill="#041CA9" d="M1152,523v4.4h-1.8V523c0.3,0,0.6,0,0.9,0C1151.4,522.9,1151.7,522.9,1152,523z"/>
			</g>
			<g id="XMLID_891_">
				<path id="XMLID_895_" fill="#5E86FF" d="M1188.6,532.7c0,5.4-4.4,9.8-9.8,9.8c-5.4,0-9.8-4.4-9.8-9.8c0-5.1,3.9-9.3,8.9-9.8
					c0.3,0,0.6,0,0.9,0c0.3,0,0.6,0,0.9,0C1184.7,523.4,1188.6,527.6,1188.6,532.7z"/>
				<path id="XMLID_892_" fill="#041CA9" d="M1179.7,523v4.4h-1.8V523c0.3,0,0.6,0,0.9,0C1179.1,522.9,1179.4,522.9,1179.7,523z"/>
			</g>
			<linearGradient id="XMLID_174_" gradientUnits="userSpaceOnUse" x1="1263.3259" y1="532.7291" x2="1273.2935" y2="532.7291">
				<stop  offset="0" style="stop-color:#FF9AF5"/>
				<stop  offset="1" style="stop-color:#5E86FF"/>
			</linearGradient>
			<circle id="XMLID_890_" fill="url(#XMLID_174_)" cx="1268.3" cy="532.7" r="5"/>
		</g>
	</g>
</g>
</svg>
